<<<<<<< HEAD
<mxfile host="app.diagrams.net" agent="Mozilla/5.0 (Windows NT 10.0; Win64; x64) AppleWebKit/537.36 (KHTML, like Gecko) Chrome/140.0.0.0 Safari/537.36 Edg/140.0.0.0" version="28.2.5">
  <diagram name="Page-1" id="VpdlwSJxh2RRlh5GWPK2">
    <mxGraphModel dx="4809" dy="2508" grid="1" gridSize="10" guides="1" tooltips="1" connect="1" arrows="1" fold="1" page="1" pageScale="1" pageWidth="850" pageHeight="1100" math="0" shadow="0">
      <root>
        <mxCell id="0" />
        <mxCell id="1" parent="0" />
        <mxCell id="nNNA26ouB6ZM9N3QlCfT-21" value="" style="group" parent="1" vertex="1" connectable="0">
          <mxGeometry x="-3060" y="-2100" width="540" height="520" as="geometry" />
        </mxCell>
        <mxCell id="nNNA26ouB6ZM9N3QlCfT-1" value="&lt;p style=&quot;text-align: left;&quot;&gt;&lt;b&gt;Usecase tổng quát phần mềm quản lý khách sạn&lt;/b&gt;&lt;/p&gt;&lt;div&gt;&lt;br&gt;&lt;/div&gt;" style="rounded=0;whiteSpace=wrap;html=1;direction=south;spacingBottom=480;fontSize=13;" parent="nNNA26ouB6ZM9N3QlCfT-21" vertex="1">
          <mxGeometry x="100" width="440" height="520" as="geometry" />
        </mxCell>
        <mxCell id="nNNA26ouB6ZM9N3QlCfT-4" value="" style="edgeStyle=orthogonalEdgeStyle;rounded=0;orthogonalLoop=1;jettySize=auto;html=1;" parent="nNNA26ouB6ZM9N3QlCfT-21" source="nNNA26ouB6ZM9N3QlCfT-2" target="nNNA26ouB6ZM9N3QlCfT-3" edge="1">
          <mxGeometry relative="1" as="geometry" />
        </mxCell>
        <mxCell id="nNNA26ouB6ZM9N3QlCfT-2" value="&lt;font style=&quot;font-size: 15px;&quot;&gt;Quản lý&lt;/font&gt;" style="shape=umlActor;verticalLabelPosition=bottom;verticalAlign=top;html=1;outlineConnect=0;" parent="nNNA26ouB6ZM9N3QlCfT-21" vertex="1">
          <mxGeometry y="70" width="30" height="60" as="geometry" />
        </mxCell>
        <mxCell id="nNNA26ouB6ZM9N3QlCfT-3" value="&lt;font style=&quot;font-size: 15px;&quot;&gt;Nhân viên&lt;/font&gt;" style="shape=umlActor;verticalLabelPosition=bottom;verticalAlign=top;html=1;outlineConnect=0;" parent="nNNA26ouB6ZM9N3QlCfT-21" vertex="1">
          <mxGeometry y="370" width="30" height="60" as="geometry" />
        </mxCell>
        <mxCell id="nNNA26ouB6ZM9N3QlCfT-5" value="Đăng nhập" style="ellipse;whiteSpace=wrap;html=1;" parent="nNNA26ouB6ZM9N3QlCfT-21" vertex="1">
          <mxGeometry x="160" y="440" width="140" height="70" as="geometry" />
        </mxCell>
        <mxCell id="nNNA26ouB6ZM9N3QlCfT-6" value="Đăng xuất" style="ellipse;whiteSpace=wrap;html=1;" parent="nNNA26ouB6ZM9N3QlCfT-21" vertex="1">
          <mxGeometry x="210" y="370" width="160" height="60" as="geometry" />
        </mxCell>
        <mxCell id="nNNA26ouB6ZM9N3QlCfT-10" value="Quản lý đặt phòng" style="ellipse;whiteSpace=wrap;html=1;" parent="nNNA26ouB6ZM9N3QlCfT-21" vertex="1">
          <mxGeometry x="210" y="220" width="200" height="60" as="geometry" />
        </mxCell>
        <mxCell id="nNNA26ouB6ZM9N3QlCfT-11" value="Quản lý hóa đơn" style="ellipse;whiteSpace=wrap;html=1;" parent="nNNA26ouB6ZM9N3QlCfT-21" vertex="1">
          <mxGeometry x="190" y="40" width="200" height="60" as="geometry" />
        </mxCell>
        <mxCell id="nNNA26ouB6ZM9N3QlCfT-13" value="Quản lý doanh thu" style="ellipse;whiteSpace=wrap;html=1;" parent="nNNA26ouB6ZM9N3QlCfT-21" vertex="1">
          <mxGeometry x="200" y="130" width="210" height="60" as="geometry" />
        </mxCell>
        <mxCell id="nNNA26ouB6ZM9N3QlCfT-14" value="Quản lý thông tin khách hàng" style="ellipse;whiteSpace=wrap;html=1;" parent="nNNA26ouB6ZM9N3QlCfT-21" vertex="1">
          <mxGeometry x="220" y="300" width="230" height="60" as="geometry" />
        </mxCell>
        <mxCell id="nNNA26ouB6ZM9N3QlCfT-15" value="" style="endArrow=classic;html=1;rounded=0;entryX=0;entryY=0.5;entryDx=0;entryDy=0;exitX=1;exitY=0.3333333333333333;exitDx=0;exitDy=0;exitPerimeter=0;" parent="nNNA26ouB6ZM9N3QlCfT-21" source="nNNA26ouB6ZM9N3QlCfT-2" target="nNNA26ouB6ZM9N3QlCfT-11" edge="1">
          <mxGeometry width="50" height="50" relative="1" as="geometry">
            <mxPoint x="30" y="130" as="sourcePoint" />
            <mxPoint x="90" y="80" as="targetPoint" />
          </mxGeometry>
        </mxCell>
        <mxCell id="nNNA26ouB6ZM9N3QlCfT-16" value="" style="endArrow=classic;html=1;rounded=0;exitX=1;exitY=0.3333333333333333;exitDx=0;exitDy=0;exitPerimeter=0;" parent="nNNA26ouB6ZM9N3QlCfT-21" source="nNNA26ouB6ZM9N3QlCfT-3" target="nNNA26ouB6ZM9N3QlCfT-5" edge="1">
          <mxGeometry width="50" height="50" relative="1" as="geometry">
            <mxPoint x="20" y="420" as="sourcePoint" />
            <mxPoint x="80" y="340" as="targetPoint" />
          </mxGeometry>
        </mxCell>
        <mxCell id="nNNA26ouB6ZM9N3QlCfT-17" value="" style="endArrow=classic;html=1;rounded=0;exitX=1;exitY=0.3333333333333333;exitDx=0;exitDy=0;exitPerimeter=0;" parent="nNNA26ouB6ZM9N3QlCfT-21" source="nNNA26ouB6ZM9N3QlCfT-3" target="nNNA26ouB6ZM9N3QlCfT-6" edge="1">
          <mxGeometry width="50" height="50" relative="1" as="geometry">
            <mxPoint x="40" y="390" as="sourcePoint" />
            <mxPoint x="182" y="454" as="targetPoint" />
          </mxGeometry>
        </mxCell>
        <mxCell id="nNNA26ouB6ZM9N3QlCfT-18" value="" style="endArrow=classic;html=1;rounded=0;entryX=0;entryY=0.5;entryDx=0;entryDy=0;" parent="nNNA26ouB6ZM9N3QlCfT-21" target="nNNA26ouB6ZM9N3QlCfT-14" edge="1">
          <mxGeometry width="50" height="50" relative="1" as="geometry">
            <mxPoint x="30" y="390" as="sourcePoint" />
            <mxPoint x="230" y="377" as="targetPoint" />
          </mxGeometry>
        </mxCell>
        <mxCell id="nNNA26ouB6ZM9N3QlCfT-19" value="" style="endArrow=classic;html=1;rounded=0;entryX=0;entryY=0.5;entryDx=0;entryDy=0;" parent="nNNA26ouB6ZM9N3QlCfT-21" target="nNNA26ouB6ZM9N3QlCfT-10" edge="1">
          <mxGeometry width="50" height="50" relative="1" as="geometry">
            <mxPoint x="30" y="390" as="sourcePoint" />
            <mxPoint x="240" y="397" as="targetPoint" />
          </mxGeometry>
        </mxCell>
        <mxCell id="nNNA26ouB6ZM9N3QlCfT-20" value="" style="endArrow=classic;html=1;rounded=0;entryX=0;entryY=0.5;entryDx=0;entryDy=0;exitX=1;exitY=0.3333333333333333;exitDx=0;exitDy=0;exitPerimeter=0;" parent="nNNA26ouB6ZM9N3QlCfT-21" source="nNNA26ouB6ZM9N3QlCfT-2" target="nNNA26ouB6ZM9N3QlCfT-13" edge="1">
          <mxGeometry width="50" height="50" relative="1" as="geometry">
            <mxPoint x="170" y="180" as="sourcePoint" />
            <mxPoint x="330" y="120" as="targetPoint" />
          </mxGeometry>
        </mxCell>
=======
<mxfile host="Electron" agent="Mozilla/5.0 (Windows NT 10.0; Win64; x64) AppleWebKit/537.36 (KHTML, like Gecko) draw.io/28.2.5 Chrome/138.0.7204.251 Electron/37.6.1 Safari/537.36" version="28.2.5">
  <diagram name="Page-1" id="VpdlwSJxh2RRlh5GWPK2">
    <mxGraphModel dx="5853" dy="3437" grid="1" gridSize="10" guides="1" tooltips="1" connect="1" arrows="1" fold="1" page="1" pageScale="1" pageWidth="850" pageHeight="1100" math="0" shadow="0">
      <root>
        <mxCell id="0" />
        <mxCell id="1" parent="0" />
>>>>>>> main
        <mxCell id="nNNA26ouB6ZM9N3QlCfT-33" value="" style="group" parent="1" vertex="1" connectable="0">
          <mxGeometry x="-4200" y="-2080" width="410" height="310" as="geometry" />
        </mxCell>
        <mxCell id="nNNA26ouB6ZM9N3QlCfT-22" value="&lt;font style=&quot;font-size: 15px;&quot;&gt;Quản lý&lt;/font&gt;" style="shape=umlActor;verticalLabelPosition=bottom;verticalAlign=top;html=1;outlineConnect=0;" parent="nNNA26ouB6ZM9N3QlCfT-33" vertex="1">
          <mxGeometry y="110" width="30" height="60" as="geometry" />
        </mxCell>
        <mxCell id="nNNA26ouB6ZM9N3QlCfT-27" value="&lt;font style=&quot;font-size: 13px;&quot;&gt;&lt;b&gt;Actor quản lý&lt;/b&gt;&lt;/font&gt;" style="rounded=0;whiteSpace=wrap;html=1;direction=south;spacingBottom=290;" parent="nNNA26ouB6ZM9N3QlCfT-33" vertex="1">
          <mxGeometry x="110" width="300" height="310" as="geometry" />
        </mxCell>
        <mxCell id="nNNA26ouB6ZM9N3QlCfT-28" value="Quản lý hóa đơn" style="ellipse;whiteSpace=wrap;html=1;" parent="nNNA26ouB6ZM9N3QlCfT-33" vertex="1">
          <mxGeometry x="160" y="70" width="200" height="70" as="geometry" />
        </mxCell>
        <mxCell id="nNNA26ouB6ZM9N3QlCfT-29" value="Quản lý doanh thu" style="ellipse;whiteSpace=wrap;html=1;" parent="nNNA26ouB6ZM9N3QlCfT-33" vertex="1">
          <mxGeometry x="150" y="180" width="210" height="80" as="geometry" />
        </mxCell>
        <mxCell id="nNNA26ouB6ZM9N3QlCfT-31" value="" style="endArrow=classic;html=1;rounded=0;entryX=0;entryY=0.5;entryDx=0;entryDy=0;" parent="nNNA26ouB6ZM9N3QlCfT-33" target="nNNA26ouB6ZM9N3QlCfT-28" edge="1">
          <mxGeometry width="50" height="50" relative="1" as="geometry">
            <mxPoint x="30" y="130" as="sourcePoint" />
            <mxPoint x="80" y="80" as="targetPoint" />
          </mxGeometry>
        </mxCell>
        <mxCell id="nNNA26ouB6ZM9N3QlCfT-32" value="" style="endArrow=classic;html=1;rounded=0;exitX=1;exitY=0.3333333333333333;exitDx=0;exitDy=0;exitPerimeter=0;entryX=0;entryY=0.5;entryDx=0;entryDy=0;" parent="nNNA26ouB6ZM9N3QlCfT-33" source="nNNA26ouB6ZM9N3QlCfT-22" target="nNNA26ouB6ZM9N3QlCfT-29" edge="1">
          <mxGeometry width="50" height="50" relative="1" as="geometry">
            <mxPoint x="140" y="240" as="sourcePoint" />
            <mxPoint x="190" y="190" as="targetPoint" />
          </mxGeometry>
        </mxCell>
<<<<<<< HEAD
        <mxCell id="nNNA26ouB6ZM9N3QlCfT-47" value="" style="group" parent="1" vertex="1" connectable="0">
          <mxGeometry x="-4100" y="-1590" width="480" height="450" as="geometry" />
        </mxCell>
        <mxCell id="nNNA26ouB6ZM9N3QlCfT-34" value="" style="group" parent="nNNA26ouB6ZM9N3QlCfT-47" vertex="1" connectable="0">
          <mxGeometry width="480" height="450" as="geometry" />
        </mxCell>
        <mxCell id="nNNA26ouB6ZM9N3QlCfT-35" value="&lt;span style=&quot;font-size: 15px;&quot;&gt;Nhân viên&lt;/span&gt;" style="shape=umlActor;verticalLabelPosition=bottom;verticalAlign=top;html=1;outlineConnect=0;" parent="nNNA26ouB6ZM9N3QlCfT-34" vertex="1">
          <mxGeometry y="110" width="30" height="60" as="geometry" />
        </mxCell>
        <mxCell id="nNNA26ouB6ZM9N3QlCfT-36" value="&lt;font style=&quot;font-size: 13px;&quot;&gt;&lt;b&gt;Actor nhân viên&lt;/b&gt;&lt;/font&gt;" style="rounded=0;whiteSpace=wrap;html=1;direction=south;spacingBottom=425;" parent="nNNA26ouB6ZM9N3QlCfT-34" vertex="1">
          <mxGeometry x="111" width="370" height="450" as="geometry" />
        </mxCell>
        <mxCell id="nNNA26ouB6ZM9N3QlCfT-37" value="Quản lý đặt phòng" style="ellipse;whiteSpace=wrap;html=1;" parent="nNNA26ouB6ZM9N3QlCfT-34" vertex="1">
          <mxGeometry x="180" y="40" width="200" height="70" as="geometry" />
        </mxCell>
        <mxCell id="nNNA26ouB6ZM9N3QlCfT-38" value="Quản lý thông tin khách hàng" style="ellipse;whiteSpace=wrap;html=1;" parent="nNNA26ouB6ZM9N3QlCfT-34" vertex="1">
          <mxGeometry x="220" y="130" width="210" height="80" as="geometry" />
        </mxCell>
        <mxCell id="nNNA26ouB6ZM9N3QlCfT-39" value="" style="endArrow=classic;html=1;rounded=0;entryX=0;entryY=0.5;entryDx=0;entryDy=0;" parent="nNNA26ouB6ZM9N3QlCfT-34" target="nNNA26ouB6ZM9N3QlCfT-37" edge="1">
=======
        <mxCell id="nNNA26ouB6ZM9N3QlCfT-35" value="&lt;span style=&quot;font-size: 15px;&quot;&gt;Nhân viên&lt;/span&gt;" style="shape=umlActor;verticalLabelPosition=bottom;verticalAlign=top;html=1;outlineConnect=0;" parent="1" vertex="1">
          <mxGeometry x="-4100" y="-1480" width="30" height="60" as="geometry" />
        </mxCell>
        <mxCell id="nNNA26ouB6ZM9N3QlCfT-36" value="&lt;font style=&quot;font-size: 13px;&quot;&gt;&lt;b&gt;Actor nhân viên&lt;/b&gt;&lt;/font&gt;" style="rounded=0;whiteSpace=wrap;html=1;direction=south;spacingBottom=219;" parent="1" vertex="1">
          <mxGeometry x="-3989" y="-1580" width="319" height="230" as="geometry" />
        </mxCell>
        <mxCell id="nNNA26ouB6ZM9N3QlCfT-38" value="Quản lý thông tin khách hàng" style="ellipse;whiteSpace=wrap;html=1;" parent="1" vertex="1">
          <mxGeometry x="-3980" y="-1440" width="170" height="80" as="geometry" />
        </mxCell>
        <mxCell id="nNNA26ouB6ZM9N3QlCfT-40" value="" style="endArrow=classic;html=1;rounded=0;exitX=1;exitY=0.3333333333333333;exitDx=0;exitDy=0;exitPerimeter=0;entryX=0;entryY=0.5;entryDx=0;entryDy=0;" parent="1" source="nNNA26ouB6ZM9N3QlCfT-35" target="nNNA26ouB6ZM9N3QlCfT-38" edge="1">
>>>>>>> main
          <mxGeometry width="50" height="50" relative="1" as="geometry">
            <mxPoint x="-3960" y="-1350" as="sourcePoint" />
            <mxPoint x="-3910" y="-1400" as="targetPoint" />
          </mxGeometry>
        </mxCell>
<<<<<<< HEAD
        <mxCell id="nNNA26ouB6ZM9N3QlCfT-40" value="" style="endArrow=classic;html=1;rounded=0;exitX=1;exitY=0.3333333333333333;exitDx=0;exitDy=0;exitPerimeter=0;entryX=0;entryY=0.5;entryDx=0;entryDy=0;" parent="nNNA26ouB6ZM9N3QlCfT-34" source="nNNA26ouB6ZM9N3QlCfT-35" target="nNNA26ouB6ZM9N3QlCfT-38" edge="1">
=======
        <mxCell id="nNNA26ouB6ZM9N3QlCfT-41" value="Đăng xuất, đăng nhập" style="ellipse;whiteSpace=wrap;html=1;" parent="1" vertex="1">
          <mxGeometry x="-3980" y="-1560" width="130" height="70" as="geometry" />
        </mxCell>
        <mxCell id="1Kp6WL4puUaQdGjoRusG-71" value="" style="group" parent="1" vertex="1" connectable="0">
          <mxGeometry x="-3350" y="-1030" width="600" height="370" as="geometry" />
        </mxCell>
        <mxCell id="1Kp6WL4puUaQdGjoRusG-30" value="&lt;font style=&quot;font-size: 15px;&quot;&gt;Quản lý&lt;/font&gt;" style="shape=umlActor;verticalLabelPosition=bottom;verticalAlign=top;html=1;outlineConnect=0;" parent="1Kp6WL4puUaQdGjoRusG-71" vertex="1">
          <mxGeometry x="10" y="55.000000000000114" width="30" height="60" as="geometry" />
        </mxCell>
        <mxCell id="1Kp6WL4puUaQdGjoRusG-32" value="&lt;font style=&quot;font-size: 15px;&quot;&gt;Nhân viên&lt;/font&gt;" style="shape=umlActor;verticalLabelPosition=bottom;verticalAlign=top;html=1;outlineConnect=0;" parent="1Kp6WL4puUaQdGjoRusG-71" vertex="1">
          <mxGeometry x="10" y="219.9999999999999" width="30" height="56.15" as="geometry" />
        </mxCell>
        <mxCell id="1Kp6WL4puUaQdGjoRusG-36" value="" style="rounded=0;whiteSpace=wrap;html=1;" parent="1Kp6WL4puUaQdGjoRusG-71" vertex="1">
          <mxGeometry x="100" width="500" height="370" as="geometry" />
        </mxCell>
        <mxCell id="1Kp6WL4puUaQdGjoRusG-41" value="" style="endArrow=classic;html=1;rounded=0;exitX=1;exitY=0.3333333333333333;exitDx=0;exitDy=0;exitPerimeter=0;entryX=0.067;entryY=0.222;entryDx=0;entryDy=0;entryPerimeter=0;" parent="1Kp6WL4puUaQdGjoRusG-71" source="1Kp6WL4puUaQdGjoRusG-32" target="1Kp6WL4puUaQdGjoRusG-59" edge="1">
>>>>>>> main
          <mxGeometry width="50" height="50" relative="1" as="geometry">
            <mxPoint x="30" y="280" as="sourcePoint" />
            <mxPoint x="70" y="210" as="targetPoint" />
          </mxGeometry>
        </mxCell>
<<<<<<< HEAD
        <mxCell id="nNNA26ouB6ZM9N3QlCfT-41" value="Đăng xuất" style="ellipse;whiteSpace=wrap;html=1;" parent="nNNA26ouB6ZM9N3QlCfT-34" vertex="1">
          <mxGeometry x="230" y="240" width="200" height="70" as="geometry" />
        </mxCell>
        <mxCell id="nNNA26ouB6ZM9N3QlCfT-42" value="Đăng nhập" style="ellipse;whiteSpace=wrap;html=1;" parent="nNNA26ouB6ZM9N3QlCfT-34" vertex="1">
          <mxGeometry x="175" y="340" width="200" height="70" as="geometry" />
        </mxCell>
        <mxCell id="nNNA26ouB6ZM9N3QlCfT-46" value="" style="endArrow=classic;html=1;rounded=0;entryX=0;entryY=0.5;entryDx=0;entryDy=0;exitX=1;exitY=0.3333333333333333;exitDx=0;exitDy=0;exitPerimeter=0;" parent="nNNA26ouB6ZM9N3QlCfT-34" source="nNNA26ouB6ZM9N3QlCfT-35" target="nNNA26ouB6ZM9N3QlCfT-42" edge="1">
          <mxGeometry width="50" height="50" relative="1" as="geometry">
            <mxPoint x="140" y="220" as="sourcePoint" />
            <mxPoint x="340" y="365" as="targetPoint" />
          </mxGeometry>
        </mxCell>
        <mxCell id="nNNA26ouB6ZM9N3QlCfT-45" value="" style="endArrow=classic;html=1;rounded=0;entryX=0;entryY=0.5;entryDx=0;entryDy=0;" parent="nNNA26ouB6ZM9N3QlCfT-47" target="nNNA26ouB6ZM9N3QlCfT-41" edge="1">
          <mxGeometry width="50" height="50" relative="1" as="geometry">
            <mxPoint x="30" y="130" as="sourcePoint" />
            <mxPoint x="280" y="200" as="targetPoint" />
          </mxGeometry>
        </mxCell>
        <mxCell id="nNNA26ouB6ZM9N3QlCfT-79" value="" style="group" parent="1" vertex="1" connectable="0">
          <mxGeometry x="-2310" y="-1820" width="550" height="520" as="geometry" />
        </mxCell>
        <mxCell id="nNNA26ouB6ZM9N3QlCfT-63" value="&lt;p style=&quot;text-align: left;&quot;&gt;&lt;b&gt;Actor quản lý&lt;/b&gt;&lt;/p&gt;&lt;div&gt;&lt;br&gt;&lt;/div&gt;" style="rounded=0;whiteSpace=wrap;html=1;direction=south;spacingBottom=480;fontSize=13;" parent="nNNA26ouB6ZM9N3QlCfT-79" vertex="1">
          <mxGeometry x="110" width="440" height="520" as="geometry" />
        </mxCell>
        <mxCell id="nNNA26ouB6ZM9N3QlCfT-65" value="&lt;font style=&quot;font-size: 15px;&quot;&gt;Quản lý&lt;/font&gt;" style="shape=umlActor;verticalLabelPosition=bottom;verticalAlign=top;html=1;outlineConnect=0;" parent="nNNA26ouB6ZM9N3QlCfT-79" vertex="1">
          <mxGeometry y="200" width="30" height="60" as="geometry" />
        </mxCell>
        <mxCell id="nNNA26ouB6ZM9N3QlCfT-67" value="Đăng nhập" style="ellipse;whiteSpace=wrap;html=1;" parent="nNNA26ouB6ZM9N3QlCfT-79" vertex="1">
          <mxGeometry x="170" y="440" width="140" height="70" as="geometry" />
        </mxCell>
        <mxCell id="nNNA26ouB6ZM9N3QlCfT-68" value="Đăng xuất" style="ellipse;whiteSpace=wrap;html=1;" parent="nNNA26ouB6ZM9N3QlCfT-79" vertex="1">
          <mxGeometry x="220" y="370" width="160" height="60" as="geometry" />
        </mxCell>
        <mxCell id="nNNA26ouB6ZM9N3QlCfT-69" value="Quản lý đặt phòng" style="ellipse;whiteSpace=wrap;html=1;" parent="nNNA26ouB6ZM9N3QlCfT-79" vertex="1">
          <mxGeometry x="220" y="220" width="200" height="60" as="geometry" />
        </mxCell>
        <mxCell id="nNNA26ouB6ZM9N3QlCfT-70" value="Quản lý hóa đơn" style="ellipse;whiteSpace=wrap;html=1;" parent="nNNA26ouB6ZM9N3QlCfT-79" vertex="1">
          <mxGeometry x="200" y="40" width="200" height="60" as="geometry" />
        </mxCell>
        <mxCell id="nNNA26ouB6ZM9N3QlCfT-71" value="Quản lý doanh thu" style="ellipse;whiteSpace=wrap;html=1;" parent="nNNA26ouB6ZM9N3QlCfT-79" vertex="1">
          <mxGeometry x="210" y="130" width="210" height="60" as="geometry" />
        </mxCell>
        <mxCell id="nNNA26ouB6ZM9N3QlCfT-72" value="Quản lý thông tin khách hàng" style="ellipse;whiteSpace=wrap;html=1;" parent="nNNA26ouB6ZM9N3QlCfT-79" vertex="1">
          <mxGeometry x="230" y="300" width="230" height="60" as="geometry" />
        </mxCell>
        <mxCell id="nNNA26ouB6ZM9N3QlCfT-73" value="" style="endArrow=classic;html=1;rounded=0;entryX=0;entryY=0.5;entryDx=0;entryDy=0;exitX=1;exitY=0.3333333333333333;exitDx=0;exitDy=0;exitPerimeter=0;" parent="nNNA26ouB6ZM9N3QlCfT-79" source="nNNA26ouB6ZM9N3QlCfT-65" target="nNNA26ouB6ZM9N3QlCfT-70" edge="1">
          <mxGeometry width="50" height="50" relative="1" as="geometry">
            <mxPoint x="40" y="130" as="sourcePoint" />
            <mxPoint x="100" y="80" as="targetPoint" />
          </mxGeometry>
        </mxCell>
        <mxCell id="nNNA26ouB6ZM9N3QlCfT-74" value="" style="endArrow=classic;html=1;rounded=0;exitX=1;exitY=0.3333333333333333;exitDx=0;exitDy=0;exitPerimeter=0;" parent="nNNA26ouB6ZM9N3QlCfT-79" source="nNNA26ouB6ZM9N3QlCfT-65" target="nNNA26ouB6ZM9N3QlCfT-67" edge="1">
          <mxGeometry width="50" height="50" relative="1" as="geometry">
            <mxPoint x="40" y="390" as="sourcePoint" />
            <mxPoint x="90" y="340" as="targetPoint" />
          </mxGeometry>
        </mxCell>
        <mxCell id="nNNA26ouB6ZM9N3QlCfT-75" value="" style="endArrow=classic;html=1;rounded=0;exitX=1;exitY=0.3333333333333333;exitDx=0;exitDy=0;exitPerimeter=0;" parent="nNNA26ouB6ZM9N3QlCfT-79" source="nNNA26ouB6ZM9N3QlCfT-65" target="nNNA26ouB6ZM9N3QlCfT-68" edge="1">
          <mxGeometry width="50" height="50" relative="1" as="geometry">
            <mxPoint x="40" y="389.9999999999998" as="sourcePoint" />
            <mxPoint x="192" y="454" as="targetPoint" />
          </mxGeometry>
        </mxCell>
        <mxCell id="nNNA26ouB6ZM9N3QlCfT-76" value="" style="endArrow=classic;html=1;rounded=0;entryX=0;entryY=0.5;entryDx=0;entryDy=0;exitX=1;exitY=0.3333333333333333;exitDx=0;exitDy=0;exitPerimeter=0;" parent="nNNA26ouB6ZM9N3QlCfT-79" source="nNNA26ouB6ZM9N3QlCfT-65" target="nNNA26ouB6ZM9N3QlCfT-72" edge="1">
          <mxGeometry width="50" height="50" relative="1" as="geometry">
            <mxPoint x="40" y="390" as="sourcePoint" />
            <mxPoint x="240" y="377" as="targetPoint" />
          </mxGeometry>
        </mxCell>
        <mxCell id="nNNA26ouB6ZM9N3QlCfT-77" value="" style="endArrow=classic;html=1;rounded=0;entryX=0;entryY=0.5;entryDx=0;entryDy=0;exitX=1;exitY=0.3333333333333333;exitDx=0;exitDy=0;exitPerimeter=0;" parent="nNNA26ouB6ZM9N3QlCfT-79" source="nNNA26ouB6ZM9N3QlCfT-65" target="nNNA26ouB6ZM9N3QlCfT-69" edge="1">
          <mxGeometry width="50" height="50" relative="1" as="geometry">
            <mxPoint x="40" y="390" as="sourcePoint" />
            <mxPoint x="250" y="397" as="targetPoint" />
          </mxGeometry>
        </mxCell>
        <mxCell id="nNNA26ouB6ZM9N3QlCfT-78" value="" style="endArrow=classic;html=1;rounded=0;entryX=0;entryY=0.5;entryDx=0;entryDy=0;exitX=1;exitY=0.3333333333333333;exitDx=0;exitDy=0;exitPerimeter=0;" parent="nNNA26ouB6ZM9N3QlCfT-79" source="nNNA26ouB6ZM9N3QlCfT-65" target="nNNA26ouB6ZM9N3QlCfT-71" edge="1">
=======
        <mxCell id="1Kp6WL4puUaQdGjoRusG-45" value="Đăng nhập" style="ellipse;whiteSpace=wrap;html=1;" parent="1Kp6WL4puUaQdGjoRusG-71" vertex="1">
          <mxGeometry x="140" y="10" width="120" height="50" as="geometry" />
        </mxCell>
        <mxCell id="1Kp6WL4puUaQdGjoRusG-47" value="&amp;lt;&amp;lt;include&amp;gt;&amp;gt;" style="html=1;verticalAlign=bottom;labelBackgroundColor=none;endArrow=open;endFill=0;dashed=1;rounded=0;exitX=0.436;exitY=0.046;exitDx=0;exitDy=0;exitPerimeter=0;entryX=0.444;entryY=1;entryDx=0;entryDy=0;entryPerimeter=0;" parent="1Kp6WL4puUaQdGjoRusG-71" source="1Kp6WL4puUaQdGjoRusG-56" target="1Kp6WL4puUaQdGjoRusG-45" edge="1">
          <mxGeometry width="160" relative="1" as="geometry">
            <mxPoint x="243.3199999999997" y="179.0400000000002" as="sourcePoint" />
            <mxPoint x="440" y="350" as="targetPoint" />
          </mxGeometry>
        </mxCell>
        <mxCell id="1Kp6WL4puUaQdGjoRusG-48" value="Nhập thông tin khách hàng" style="ellipse;whiteSpace=wrap;html=1;" parent="1Kp6WL4puUaQdGjoRusG-71" vertex="1">
          <mxGeometry x="275" y="10" width="150" height="50" as="geometry" />
        </mxCell>
        <mxCell id="1Kp6WL4puUaQdGjoRusG-49" value="&amp;lt;&amp;lt;include&amp;gt;&amp;gt;" style="html=1;verticalAlign=bottom;labelBackgroundColor=none;endArrow=open;endFill=0;dashed=1;rounded=0;exitX=0.813;exitY=0.4;exitDx=0;exitDy=0;entryX=0.299;entryY=1.003;entryDx=0;entryDy=0;entryPerimeter=0;exitPerimeter=0;" parent="1Kp6WL4puUaQdGjoRusG-71" source="1Kp6WL4puUaQdGjoRusG-56" target="1Kp6WL4puUaQdGjoRusG-48" edge="1">
          <mxGeometry width="160" relative="1" as="geometry">
            <mxPoint x="272.42640687119274" y="191.71572875253833" as="sourcePoint" />
            <mxPoint x="253" y="130" as="targetPoint" />
          </mxGeometry>
        </mxCell>
        <mxCell id="1Kp6WL4puUaQdGjoRusG-50" value="Nhập thời gian nhận, thời gian trả phòng" style="ellipse;whiteSpace=wrap;html=1;" parent="1Kp6WL4puUaQdGjoRusG-71" vertex="1">
          <mxGeometry x="365" y="60" width="222" height="50" as="geometry" />
        </mxCell>
        <mxCell id="1Kp6WL4puUaQdGjoRusG-51" value="&amp;lt;&amp;lt;include&amp;gt;&amp;gt;" style="html=1;verticalAlign=bottom;labelBackgroundColor=none;endArrow=open;endFill=0;dashed=1;rounded=0;exitX=0.953;exitY=0.287;exitDx=0;exitDy=0;entryX=0.018;entryY=0.673;entryDx=0;entryDy=0;entryPerimeter=0;exitPerimeter=0;" parent="1Kp6WL4puUaQdGjoRusG-71" source="1Kp6WL4puUaQdGjoRusG-55" target="1Kp6WL4puUaQdGjoRusG-50" edge="1">
          <mxGeometry width="160" relative="1" as="geometry">
            <mxPoint x="290" y="220.00000000000023" as="sourcePoint" />
            <mxPoint x="281" y="219" as="targetPoint" />
          </mxGeometry>
        </mxCell>
        <mxCell id="1Kp6WL4puUaQdGjoRusG-52" value="Chọn dịch vụ" style="ellipse;whiteSpace=wrap;html=1;" parent="1Kp6WL4puUaQdGjoRusG-71" vertex="1">
          <mxGeometry x="370" y="270" width="150" height="50" as="geometry" />
        </mxCell>
        <mxCell id="1Kp6WL4puUaQdGjoRusG-54" value="&amp;lt;&amp;lt;extend&amp;gt;&amp;gt;" style="html=1;verticalAlign=bottom;labelBackgroundColor=none;endArrow=open;endFill=0;dashed=1;rounded=0;exitX=0;exitY=0.5;exitDx=0;exitDy=0;entryX=0.934;entryY=0.758;entryDx=0;entryDy=0;entryPerimeter=0;" parent="1Kp6WL4puUaQdGjoRusG-71" source="1Kp6WL4puUaQdGjoRusG-52" target="1Kp6WL4puUaQdGjoRusG-55" edge="1">
          <mxGeometry width="160" relative="1" as="geometry">
            <mxPoint x="220" y="330" as="sourcePoint" />
            <mxPoint x="272" y="251" as="targetPoint" />
          </mxGeometry>
        </mxCell>
        <mxCell id="1Kp6WL4puUaQdGjoRusG-55" value="" style="shape=ellipse;container=1;horizontal=1;horizontalStack=0;resizeParent=1;resizeParentMax=0;resizeLast=0;html=1;dashed=0;collapsible=0;" parent="1Kp6WL4puUaQdGjoRusG-71" vertex="1">
          <mxGeometry x="140" y="160" width="160" height="100" as="geometry" />
        </mxCell>
        <mxCell id="1Kp6WL4puUaQdGjoRusG-56" value="Đặt phòng" style="html=1;strokeColor=none;fillColor=none;align=center;verticalAlign=middle;rotatable=0;whiteSpace=wrap;" parent="1Kp6WL4puUaQdGjoRusG-55" vertex="1">
          <mxGeometry width="160" height="25" as="geometry" />
        </mxCell>
        <mxCell id="1Kp6WL4puUaQdGjoRusG-57" value="" style="line;strokeWidth=1;fillColor=none;rotatable=0;labelPosition=right;points=[];portConstraint=eastwest;dashed=0;resizeWidth=1;" parent="1Kp6WL4puUaQdGjoRusG-55" vertex="1">
          <mxGeometry x="8" y="25" width="144" height="8.333333333333332" as="geometry" />
        </mxCell>
        <mxCell id="1Kp6WL4puUaQdGjoRusG-58" value="extension points" style="text;html=1;align=center;verticalAlign=middle;rotatable=0;fillColor=none;strokeColor=none;whiteSpace=wrap;" parent="1Kp6WL4puUaQdGjoRusG-55" vertex="1">
          <mxGeometry y="33.333333333333336" width="160" height="11.11111111111111" as="geometry" />
        </mxCell>
        <mxCell id="1Kp6WL4puUaQdGjoRusG-59" value="1. Khách dùng dịch vụ" style="text;html=1;align=left;verticalAlign=middle;rotatable=0;spacingLeft=25;fillColor=none;strokeColor=none;whiteSpace=wrap;" parent="1Kp6WL4puUaQdGjoRusG-55" vertex="1">
          <mxGeometry x="-10.666666666666666" y="44.44444444444444" width="160" height="25" as="geometry" />
        </mxCell>
        <mxCell id="1Kp6WL4puUaQdGjoRusG-60" style="edgeStyle=orthogonalEdgeStyle;rounded=0;orthogonalLoop=1;jettySize=auto;html=1;exitX=0.5;exitY=1;exitDx=0;exitDy=0;" parent="1Kp6WL4puUaQdGjoRusG-55" source="1Kp6WL4puUaQdGjoRusG-58" target="1Kp6WL4puUaQdGjoRusG-58" edge="1">
          <mxGeometry relative="1" as="geometry" />
        </mxCell>
        <mxCell id="1Kp6WL4puUaQdGjoRusG-64" value="2. Khách đặt trước" style="text;html=1;align=left;verticalAlign=middle;rotatable=0;spacingLeft=25;fillColor=none;strokeColor=none;whiteSpace=wrap;" parent="1Kp6WL4puUaQdGjoRusG-55" vertex="1">
          <mxGeometry x="-10.666666666666666" y="60.004444444444445" width="160" height="25" as="geometry" />
        </mxCell>
        <mxCell id="1Kp6WL4puUaQdGjoRusG-65" value="&amp;lt;&amp;lt;extend&amp;gt;&amp;gt;" style="html=1;verticalAlign=bottom;labelBackgroundColor=none;endArrow=open;endFill=0;dashed=1;rounded=0;exitX=0.181;exitY=0.072;exitDx=0;exitDy=0;exitPerimeter=0;entryX=0.5;entryY=1;entryDx=0;entryDy=0;" parent="1Kp6WL4puUaQdGjoRusG-71" source="1Kp6WL4puUaQdGjoRusG-66" target="1Kp6WL4puUaQdGjoRusG-55" edge="1">
          <mxGeometry width="160" relative="1" as="geometry">
            <mxPoint x="171" y="390" as="sourcePoint" />
            <mxPoint x="240" y="296" as="targetPoint" />
          </mxGeometry>
        </mxCell>
        <mxCell id="1Kp6WL4puUaQdGjoRusG-66" value="Xác nhận tiền cọc" style="ellipse;whiteSpace=wrap;html=1;" parent="1Kp6WL4puUaQdGjoRusG-71" vertex="1">
          <mxGeometry x="240" y="310" width="150" height="50" as="geometry" />
        </mxCell>
        <mxCell id="1Kp6WL4puUaQdGjoRusG-67" value="Chọn phòng" style="ellipse;whiteSpace=wrap;html=1;" parent="1Kp6WL4puUaQdGjoRusG-71" vertex="1">
          <mxGeometry x="420" y="120" width="150" height="50" as="geometry" />
        </mxCell>
        <mxCell id="1Kp6WL4puUaQdGjoRusG-68" value="&amp;lt;&amp;lt;include&amp;gt;&amp;gt;" style="html=1;verticalAlign=bottom;labelBackgroundColor=none;endArrow=open;endFill=0;dashed=1;rounded=0;exitX=0.991;exitY=0.381;exitDx=0;exitDy=0;exitPerimeter=0;entryX=-0.003;entryY=0.551;entryDx=0;entryDy=0;entryPerimeter=0;" parent="1Kp6WL4puUaQdGjoRusG-71" source="1Kp6WL4puUaQdGjoRusG-55" target="1Kp6WL4puUaQdGjoRusG-67" edge="1">
          <mxGeometry width="160" relative="1" as="geometry">
            <mxPoint x="430" y="331" as="sourcePoint" />
            <mxPoint x="660" y="520" as="targetPoint" />
          </mxGeometry>
        </mxCell>
        <mxCell id="1Kp6WL4puUaQdGjoRusG-69" value="&amp;lt;&amp;lt;include&amp;gt;&amp;gt;" style="html=1;verticalAlign=bottom;labelBackgroundColor=none;endArrow=open;endFill=0;dashed=1;rounded=0;exitX=0.996;exitY=0.57;exitDx=0;exitDy=0;exitPerimeter=0;entryX=-0.003;entryY=0.551;entryDx=0;entryDy=0;entryPerimeter=0;" parent="1Kp6WL4puUaQdGjoRusG-71" source="1Kp6WL4puUaQdGjoRusG-55" target="1Kp6WL4puUaQdGjoRusG-70" edge="1">
          <mxGeometry width="160" relative="1" as="geometry">
            <mxPoint x="299" y="260" as="sourcePoint" />
            <mxPoint x="660" y="582" as="targetPoint" />
          </mxGeometry>
        </mxCell>
        <mxCell id="1Kp6WL4puUaQdGjoRusG-70" value="Tạo hóa đơn" style="ellipse;whiteSpace=wrap;html=1;" parent="1Kp6WL4puUaQdGjoRusG-71" vertex="1">
          <mxGeometry x="400" y="190" width="170" height="50" as="geometry" />
        </mxCell>
        <mxCell id="1Kp6WL4puUaQdGjoRusG-83" value="" style="group" parent="1" vertex="1" connectable="0">
          <mxGeometry x="-3320" y="-549.9999999999999" width="410" height="161.14999999999975" as="geometry" />
        </mxCell>
        <mxCell id="1Kp6WL4puUaQdGjoRusG-72" value="&lt;font style=&quot;font-size: 15px;&quot;&gt;Quản lý&lt;/font&gt;" style="shape=umlActor;verticalLabelPosition=bottom;verticalAlign=top;html=1;outlineConnect=0;" parent="1Kp6WL4puUaQdGjoRusG-83" vertex="1">
          <mxGeometry width="30" height="60" as="geometry" />
        </mxCell>
        <mxCell id="1Kp6WL4puUaQdGjoRusG-73" value="" style="edgeStyle=orthogonalEdgeStyle;rounded=0;orthogonalLoop=1;jettySize=auto;html=1;" parent="1Kp6WL4puUaQdGjoRusG-83" source="1Kp6WL4puUaQdGjoRusG-72" target="1Kp6WL4puUaQdGjoRusG-74" edge="1">
          <mxGeometry relative="1" as="geometry" />
        </mxCell>
        <mxCell id="1Kp6WL4puUaQdGjoRusG-74" value="&lt;font style=&quot;font-size: 15px;&quot;&gt;Nhân viên&lt;/font&gt;" style="shape=umlActor;verticalLabelPosition=bottom;verticalAlign=top;html=1;outlineConnect=0;" parent="1Kp6WL4puUaQdGjoRusG-83" vertex="1">
          <mxGeometry y="104.99999999999977" width="30" height="56.15" as="geometry" />
        </mxCell>
        <mxCell id="1Kp6WL4puUaQdGjoRusG-77" value="" style="rounded=0;whiteSpace=wrap;html=1;" parent="1Kp6WL4puUaQdGjoRusG-83" vertex="1">
          <mxGeometry x="80" y="54.999999999999886" width="330" height="70" as="geometry" />
        </mxCell>
        <mxCell id="1Kp6WL4puUaQdGjoRusG-78" value="" style="endArrow=classic;html=1;rounded=0;exitX=1;exitY=0.3333333333333333;exitDx=0;exitDy=0;exitPerimeter=0;entryX=0;entryY=0.5;entryDx=0;entryDy=0;" parent="1Kp6WL4puUaQdGjoRusG-83" source="1Kp6WL4puUaQdGjoRusG-74" target="1Kp6WL4puUaQdGjoRusG-79" edge="1">
>>>>>>> main
          <mxGeometry width="50" height="50" relative="1" as="geometry">
            <mxPoint x="20" y="148.9999999999999" as="sourcePoint" />
            <mxPoint x="130" y="119.99999999999989" as="targetPoint" />
          </mxGeometry>
        </mxCell>
        <mxCell id="1Kp6WL4puUaQdGjoRusG-79" value="Đăng nhập" style="ellipse;whiteSpace=wrap;html=1;" parent="1Kp6WL4puUaQdGjoRusG-83" vertex="1">
          <mxGeometry x="110" y="74.99999999999989" width="100" height="30" as="geometry" />
        </mxCell>
        <mxCell id="1Kp6WL4puUaQdGjoRusG-80" value="&amp;lt;&amp;lt;include&amp;gt;&amp;gt;" style="html=1;verticalAlign=bottom;labelBackgroundColor=none;endArrow=open;endFill=0;dashed=1;rounded=0;exitX=1;exitY=0.5;exitDx=0;exitDy=0;entryX=0;entryY=0.5;entryDx=0;entryDy=0;" parent="1Kp6WL4puUaQdGjoRusG-83" source="1Kp6WL4puUaQdGjoRusG-79" target="1Kp6WL4puUaQdGjoRusG-82" edge="1">
          <mxGeometry width="160" relative="1" as="geometry">
            <mxPoint x="210" y="69.99999999999989" as="sourcePoint" />
            <mxPoint x="300" y="69.99999999999989" as="targetPoint" />
          </mxGeometry>
        </mxCell>
        <mxCell id="1Kp6WL4puUaQdGjoRusG-82" value="Nhập tài khoản,&lt;div&gt;mật khẩu&lt;/div&gt;" style="ellipse;whiteSpace=wrap;html=1;" parent="1Kp6WL4puUaQdGjoRusG-83" vertex="1">
          <mxGeometry x="290" y="67.49999999999989" width="110" height="45" as="geometry" />
        </mxCell>
        <mxCell id="1Kp6WL4puUaQdGjoRusG-84" value="" style="group" parent="1" vertex="1" connectable="0">
          <mxGeometry x="-3320" y="-329.9999999999999" width="410" height="161.14999999999975" as="geometry" />
        </mxCell>
        <mxCell id="1Kp6WL4puUaQdGjoRusG-85" value="&lt;font style=&quot;font-size: 15px;&quot;&gt;Quản lý&lt;/font&gt;" style="shape=umlActor;verticalLabelPosition=bottom;verticalAlign=top;html=1;outlineConnect=0;" parent="1Kp6WL4puUaQdGjoRusG-84" vertex="1">
          <mxGeometry width="30" height="60" as="geometry" />
        </mxCell>
        <mxCell id="1Kp6WL4puUaQdGjoRusG-86" value="" style="edgeStyle=orthogonalEdgeStyle;rounded=0;orthogonalLoop=1;jettySize=auto;html=1;" parent="1Kp6WL4puUaQdGjoRusG-84" source="1Kp6WL4puUaQdGjoRusG-85" target="1Kp6WL4puUaQdGjoRusG-87" edge="1">
          <mxGeometry relative="1" as="geometry" />
        </mxCell>
        <mxCell id="1Kp6WL4puUaQdGjoRusG-87" value="&lt;font style=&quot;font-size: 15px;&quot;&gt;Nhân viên&lt;/font&gt;" style="shape=umlActor;verticalLabelPosition=bottom;verticalAlign=top;html=1;outlineConnect=0;" parent="1Kp6WL4puUaQdGjoRusG-84" vertex="1">
          <mxGeometry y="104.99999999999977" width="30" height="56.15" as="geometry" />
        </mxCell>
        <mxCell id="1Kp6WL4puUaQdGjoRusG-88" value="" style="rounded=0;whiteSpace=wrap;html=1;" parent="1Kp6WL4puUaQdGjoRusG-84" vertex="1">
          <mxGeometry x="80" width="330" height="125" as="geometry" />
        </mxCell>
        <mxCell id="1Kp6WL4puUaQdGjoRusG-89" value="" style="endArrow=classic;html=1;rounded=0;exitX=1;exitY=0.3333333333333333;exitDx=0;exitDy=0;exitPerimeter=0;entryX=0;entryY=0.5;entryDx=0;entryDy=0;" parent="1Kp6WL4puUaQdGjoRusG-84" source="1Kp6WL4puUaQdGjoRusG-87" target="1Kp6WL4puUaQdGjoRusG-90" edge="1">
          <mxGeometry width="50" height="50" relative="1" as="geometry">
            <mxPoint x="20" y="148.9999999999999" as="sourcePoint" />
            <mxPoint x="130" y="119.99999999999989" as="targetPoint" />
          </mxGeometry>
        </mxCell>
        <mxCell id="1Kp6WL4puUaQdGjoRusG-90" value="Đăng xuất" style="ellipse;whiteSpace=wrap;html=1;" parent="1Kp6WL4puUaQdGjoRusG-84" vertex="1">
          <mxGeometry x="100" y="47.499999999999886" width="100" height="30" as="geometry" />
        </mxCell>
        <mxCell id="1Kp6WL4puUaQdGjoRusG-91" value="&amp;lt;&amp;lt;include&amp;gt;&amp;gt;" style="html=1;verticalAlign=bottom;labelBackgroundColor=none;endArrow=open;endFill=0;dashed=1;rounded=0;exitX=1;exitY=0.5;exitDx=0;exitDy=0;entryX=0;entryY=0.5;entryDx=0;entryDy=0;" parent="1Kp6WL4puUaQdGjoRusG-84" source="1Kp6WL4puUaQdGjoRusG-90" target="1Kp6WL4puUaQdGjoRusG-92" edge="1">
          <mxGeometry width="160" relative="1" as="geometry">
            <mxPoint x="210" y="69.99999999999989" as="sourcePoint" />
            <mxPoint x="300" y="69.99999999999989" as="targetPoint" />
          </mxGeometry>
        </mxCell>
        <mxCell id="1Kp6WL4puUaQdGjoRusG-92" value="Xác nhận đăng xuất" style="ellipse;whiteSpace=wrap;html=1;" parent="1Kp6WL4puUaQdGjoRusG-84" vertex="1">
          <mxGeometry x="280" y="67.5" width="120" height="45" as="geometry" />
        </mxCell>
        <mxCell id="1Kp6WL4puUaQdGjoRusG-93" value="&amp;lt;&amp;lt;include&amp;gt;&amp;gt;" style="html=1;verticalAlign=bottom;labelBackgroundColor=none;endArrow=open;endFill=0;dashed=1;rounded=0;entryX=0;entryY=0.5;entryDx=0;entryDy=0;" parent="1Kp6WL4puUaQdGjoRusG-84" target="1Kp6WL4puUaQdGjoRusG-94" edge="1">
          <mxGeometry width="160" relative="1" as="geometry">
            <mxPoint x="200" y="59.999999999999886" as="sourcePoint" />
            <mxPoint x="300" y="12.749999999999886" as="targetPoint" />
          </mxGeometry>
        </mxCell>
        <mxCell id="1Kp6WL4puUaQdGjoRusG-94" value="Đăng nhập" style="ellipse;whiteSpace=wrap;html=1;" parent="1Kp6WL4puUaQdGjoRusG-84" vertex="1">
          <mxGeometry x="280" y="10.25" width="120" height="45" as="geometry" />
        </mxCell>
        <mxCell id="1Kp6WL4puUaQdGjoRusG-135" value="" style="group;spacingBottom=6;" parent="1" vertex="1" connectable="0">
          <mxGeometry x="-3300" y="-2190" width="580" height="820" as="geometry" />
        </mxCell>
        <mxCell id="nNNA26ouB6ZM9N3QlCfT-1" value="&lt;p style=&quot;text-align: left;&quot;&gt;&lt;b&gt;Usecase tổng quát phần mềm quản lý khách sạn&lt;/b&gt;&lt;/p&gt;&lt;div&gt;&lt;br&gt;&lt;/div&gt;" style="rounded=0;whiteSpace=wrap;html=1;direction=south;spacingBottom=740;fontSize=13;" parent="1Kp6WL4puUaQdGjoRusG-135" vertex="1">
          <mxGeometry x="100" width="480" height="780" as="geometry" />
        </mxCell>
        <mxCell id="nNNA26ouB6ZM9N3QlCfT-2" value="&lt;font style=&quot;font-size: 15px;&quot;&gt;Quản lý&lt;/font&gt;" style="shape=umlActor;verticalLabelPosition=bottom;verticalAlign=top;html=1;outlineConnect=0;" parent="1Kp6WL4puUaQdGjoRusG-135" vertex="1">
          <mxGeometry y="100" width="30" height="60" as="geometry" />
        </mxCell>
        <mxCell id="nNNA26ouB6ZM9N3QlCfT-3" value="&lt;font style=&quot;font-size: 15px;&quot;&gt;Nhân viên&lt;/font&gt;" style="shape=umlActor;verticalLabelPosition=bottom;verticalAlign=top;html=1;outlineConnect=0;" parent="1Kp6WL4puUaQdGjoRusG-135" vertex="1">
          <mxGeometry y="473.8499999999999" width="30" height="56.15" as="geometry" />
        </mxCell>
        <mxCell id="nNNA26ouB6ZM9N3QlCfT-6" value="Đăng xuất, đăng nhập" style="ellipse;whiteSpace=wrap;html=1;" parent="1Kp6WL4puUaQdGjoRusG-135" vertex="1">
          <mxGeometry x="100" y="710" width="200" height="60" as="geometry" />
        </mxCell>
        <mxCell id="nNNA26ouB6ZM9N3QlCfT-11" value="Quản lý hóa đơn" style="ellipse;whiteSpace=wrap;html=1;" parent="1Kp6WL4puUaQdGjoRusG-135" vertex="1">
          <mxGeometry x="225" y="29.997692307692432" width="200" height="78.46153846153845" as="geometry" />
        </mxCell>
        <mxCell id="nNNA26ouB6ZM9N3QlCfT-13" value="Quản lý doanh thu" style="ellipse;whiteSpace=wrap;html=1;" parent="1Kp6WL4puUaQdGjoRusG-135" vertex="1">
          <mxGeometry x="200" y="120.76999999999998" width="210" height="78.46153846153845" as="geometry" />
        </mxCell>
        <mxCell id="nNNA26ouB6ZM9N3QlCfT-14" value="Quản lý thông tin khách hàng" style="ellipse;whiteSpace=wrap;html=1;" parent="1Kp6WL4puUaQdGjoRusG-135" vertex="1">
          <mxGeometry x="300" y="679.9976923076924" width="230" height="78.46153846153845" as="geometry" />
        </mxCell>
        <mxCell id="nNNA26ouB6ZM9N3QlCfT-15" value="" style="endArrow=classic;html=1;rounded=0;entryX=0;entryY=0.5;entryDx=0;entryDy=0;exitX=1;exitY=0.3333333333333333;exitDx=0;exitDy=0;exitPerimeter=0;" parent="1Kp6WL4puUaQdGjoRusG-135" source="nNNA26ouB6ZM9N3QlCfT-2" target="nNNA26ouB6ZM9N3QlCfT-11" edge="1">
          <mxGeometry width="50" height="50" relative="1" as="geometry">
            <mxPoint x="30" y="160" as="sourcePoint" />
            <mxPoint x="90" y="94.61538461538453" as="targetPoint" />
          </mxGeometry>
        </mxCell>
        <mxCell id="nNNA26ouB6ZM9N3QlCfT-17" value="" style="endArrow=classic;html=1;rounded=0;exitX=1;exitY=0.3333333333333333;exitDx=0;exitDy=0;exitPerimeter=0;" parent="1Kp6WL4puUaQdGjoRusG-135" source="nNNA26ouB6ZM9N3QlCfT-3" target="nNNA26ouB6ZM9N3QlCfT-6" edge="1">
          <mxGeometry width="50" height="50" relative="1" as="geometry">
            <mxPoint x="40" y="500" as="sourcePoint" />
            <mxPoint x="182" y="583.6923076923076" as="targetPoint" />
          </mxGeometry>
        </mxCell>
        <mxCell id="nNNA26ouB6ZM9N3QlCfT-18" value="" style="endArrow=classic;html=1;rounded=0;entryX=0;entryY=0.5;entryDx=0;entryDy=0;exitX=1;exitY=0.3333333333333333;exitDx=0;exitDy=0;exitPerimeter=0;" parent="1Kp6WL4puUaQdGjoRusG-135" source="nNNA26ouB6ZM9N3QlCfT-3" target="nNNA26ouB6ZM9N3QlCfT-14" edge="1">
          <mxGeometry width="50" height="50" relative="1" as="geometry">
            <mxPoint x="30" y="500" as="sourcePoint" />
            <mxPoint x="230" y="483" as="targetPoint" />
          </mxGeometry>
        </mxCell>
        <mxCell id="nNNA26ouB6ZM9N3QlCfT-20" value="" style="endArrow=classic;html=1;rounded=0;entryX=0;entryY=0.5;entryDx=0;entryDy=0;exitX=1;exitY=0.3333333333333333;exitDx=0;exitDy=0;exitPerimeter=0;" parent="1Kp6WL4puUaQdGjoRusG-135" source="nNNA26ouB6ZM9N3QlCfT-2" target="nNNA26ouB6ZM9N3QlCfT-13" edge="1">
          <mxGeometry width="50" height="50" relative="1" as="geometry">
            <mxPoint x="170" y="225.38461538461524" as="sourcePoint" />
            <mxPoint x="330" y="146.9230769230769" as="targetPoint" />
          </mxGeometry>
        </mxCell>
        <mxCell id="1Kp6WL4puUaQdGjoRusG-120" value="" style="endArrow=classic;html=1;rounded=0;entryX=0;entryY=0.5;entryDx=0;entryDy=0;" parent="1Kp6WL4puUaQdGjoRusG-135" target="1Kp6WL4puUaQdGjoRusG-115" edge="1">
          <mxGeometry width="50" height="50" relative="1" as="geometry">
            <mxPoint x="30" y="120" as="sourcePoint" />
            <mxPoint x="228" y="275" as="targetPoint" />
          </mxGeometry>
        </mxCell>
        <mxCell id="1Kp6WL4puUaQdGjoRusG-122" value="" style="endArrow=classic;html=1;rounded=0;entryX=0.007;entryY=0.433;entryDx=0;entryDy=0;entryPerimeter=0;exitX=1;exitY=0.3333333333333333;exitDx=0;exitDy=0;exitPerimeter=0;" parent="1Kp6WL4puUaQdGjoRusG-135" source="nNNA26ouB6ZM9N3QlCfT-2" target="1Kp6WL4puUaQdGjoRusG-114" edge="1">
          <mxGeometry width="50" height="50" relative="1" as="geometry">
            <mxPoint x="29.5" y="125" as="sourcePoint" />
            <mxPoint x="217.5" y="270" as="targetPoint" />
          </mxGeometry>
        </mxCell>
        <mxCell id="1Kp6WL4puUaQdGjoRusG-123" value="" style="endArrow=classic;html=1;rounded=0;entryX=0.013;entryY=0.488;entryDx=0;entryDy=0;entryPerimeter=0;exitX=1;exitY=0.3333333333333333;exitDx=0;exitDy=0;exitPerimeter=0;" parent="1Kp6WL4puUaQdGjoRusG-135" source="nNNA26ouB6ZM9N3QlCfT-2" target="1Kp6WL4puUaQdGjoRusG-116" edge="1">
          <mxGeometry width="50" height="50" relative="1" as="geometry">
            <mxPoint x="30" y="180" as="sourcePoint" />
            <mxPoint x="218" y="385" as="targetPoint" />
          </mxGeometry>
        </mxCell>
        <mxCell id="1Kp6WL4puUaQdGjoRusG-124" value="" style="endArrow=classic;html=1;rounded=0;entryX=0.017;entryY=0.423;entryDx=0;entryDy=0;entryPerimeter=0;exitX=1;exitY=0.3333333333333333;exitDx=0;exitDy=0;exitPerimeter=0;" parent="1Kp6WL4puUaQdGjoRusG-135" source="nNNA26ouB6ZM9N3QlCfT-2" target="1Kp6WL4puUaQdGjoRusG-118" edge="1">
          <mxGeometry width="50" height="50" relative="1" as="geometry">
            <mxPoint x="40" y="140" as="sourcePoint" />
            <mxPoint x="218" y="445" as="targetPoint" />
          </mxGeometry>
        </mxCell>
        <mxCell id="1Kp6WL4puUaQdGjoRusG-125" value="" style="endArrow=classic;html=1;rounded=0;entryX=0.017;entryY=0.4;entryDx=0;entryDy=0;entryPerimeter=0;" parent="1Kp6WL4puUaQdGjoRusG-135" target="1Kp6WL4puUaQdGjoRusG-119" edge="1">
          <mxGeometry width="50" height="50" relative="1" as="geometry">
            <mxPoint x="30" y="120" as="sourcePoint" />
            <mxPoint x="217.5" y="510" as="targetPoint" />
          </mxGeometry>
        </mxCell>
        <mxCell id="1Kp6WL4puUaQdGjoRusG-130" value="" style="endArrow=classic;html=1;rounded=0;entryX=0.008;entryY=0.423;entryDx=0;entryDy=0;exitX=1;exitY=0.3333333333333333;exitDx=0;exitDy=0;exitPerimeter=0;entryPerimeter=0;" parent="1Kp6WL4puUaQdGjoRusG-135" target="1Kp6WL4puUaQdGjoRusG-127" edge="1">
          <mxGeometry width="50" height="50" relative="1" as="geometry">
            <mxPoint x="30" y="491.72" as="sourcePoint" />
            <mxPoint x="280" y="588.72" as="targetPoint" />
          </mxGeometry>
        </mxCell>
        <mxCell id="1Kp6WL4puUaQdGjoRusG-134" value="" style="endArrow=classic;html=1;rounded=0;entryX=0.009;entryY=0.388;entryDx=0;entryDy=0;exitX=1;exitY=0.3333333333333333;exitDx=0;exitDy=0;exitPerimeter=0;entryPerimeter=0;" parent="1Kp6WL4puUaQdGjoRusG-135" source="nNNA26ouB6ZM9N3QlCfT-3" target="1Kp6WL4puUaQdGjoRusG-128" edge="1">
          <mxGeometry width="50" height="50" relative="1" as="geometry">
            <mxPoint x="40" y="501.72" as="sourcePoint" />
            <mxPoint x="290" y="598.72" as="targetPoint" />
          </mxGeometry>
        </mxCell>
        <mxCell id="1Kp6WL4puUaQdGjoRusG-167" value="" style="endArrow=block;html=1;rounded=0;align=center;verticalAlign=bottom;endFill=0;labelBackgroundColor=none;endSize=8;entryX=0.5;entryY=0;entryDx=0;entryDy=0;entryPerimeter=0;" parent="1Kp6WL4puUaQdGjoRusG-135" source="nNNA26ouB6ZM9N3QlCfT-2" target="nNNA26ouB6ZM9N3QlCfT-3" edge="1">
          <mxGeometry relative="1" as="geometry">
            <mxPoint x="35" y="188.47621372767867" as="sourcePoint" />
            <mxPoint x="30" y="430" as="targetPoint" />
          </mxGeometry>
        </mxCell>
        <mxCell id="1Kp6WL4puUaQdGjoRusG-171" value="" style="group" parent="1Kp6WL4puUaQdGjoRusG-135" vertex="1" connectable="0">
          <mxGeometry x="196.25" y="210" width="187.5" height="320" as="geometry" />
        </mxCell>
        <mxCell id="1Kp6WL4puUaQdGjoRusG-113" value="&lt;p style=&quot;margin:0px;margin-top:4px;text-align:center;&quot;&gt;&lt;b&gt;Quản lý chung&lt;/b&gt;&lt;/p&gt;&lt;hr size=&quot;1&quot; style=&quot;border-style:solid;&quot;&gt;&lt;div style=&quot;height:2px;&quot;&gt;&lt;/div&gt;" style="verticalAlign=top;align=left;overflow=fill;html=1;whiteSpace=wrap;" parent="1Kp6WL4puUaQdGjoRusG-171" vertex="1">
          <mxGeometry width="187.5" height="320" as="geometry" />
        </mxCell>
        <mxCell id="1Kp6WL4puUaQdGjoRusG-114" value="Quản lý dịch vụ" style="ellipse;whiteSpace=wrap;html=1;" parent="1Kp6WL4puUaQdGjoRusG-171" vertex="1">
          <mxGeometry x="21.25" y="30" width="145" height="50" as="geometry" />
        </mxCell>
        <mxCell id="1Kp6WL4puUaQdGjoRusG-115" value="Quản lý phòng" style="ellipse;whiteSpace=wrap;html=1;" parent="1Kp6WL4puUaQdGjoRusG-171" vertex="1">
          <mxGeometry x="21.25" y="90" width="145" height="50" as="geometry" />
        </mxCell>
        <mxCell id="1Kp6WL4puUaQdGjoRusG-116" value="Quản lý loại phòng" style="ellipse;whiteSpace=wrap;html=1;" parent="1Kp6WL4puUaQdGjoRusG-171" vertex="1">
          <mxGeometry x="21.25" y="145" width="145" height="50" as="geometry" />
        </mxCell>
        <mxCell id="1Kp6WL4puUaQdGjoRusG-118" value="Quản lý tầng" style="ellipse;whiteSpace=wrap;html=1;" parent="1Kp6WL4puUaQdGjoRusG-171" vertex="1">
          <mxGeometry x="21.25" y="205" width="145" height="50" as="geometry" />
        </mxCell>
        <mxCell id="1Kp6WL4puUaQdGjoRusG-119" value="Quản lý tài khoản" style="ellipse;whiteSpace=wrap;html=1;" parent="1Kp6WL4puUaQdGjoRusG-171" vertex="1">
          <mxGeometry x="21.25" y="263.8499999999999" width="145" height="50" as="geometry" />
        </mxCell>
        <mxCell id="1Kp6WL4puUaQdGjoRusG-211" value="" style="group" parent="1Kp6WL4puUaQdGjoRusG-135" vertex="1" connectable="0">
          <mxGeometry x="250" y="540" width="160" height="130" as="geometry" />
        </mxCell>
        <mxCell id="1Kp6WL4puUaQdGjoRusG-215" value="" style="group" parent="1Kp6WL4puUaQdGjoRusG-211" vertex="1" connectable="0">
          <mxGeometry width="160" height="130" as="geometry" />
        </mxCell>
        <mxCell id="1Kp6WL4puUaQdGjoRusG-126" value="&lt;p style=&quot;margin:0px;margin-top:4px;text-align:center;&quot;&gt;&lt;b&gt;Quản lý đặt phòng&lt;/b&gt;&lt;/p&gt;&lt;hr size=&quot;1&quot; style=&quot;border-style:solid;&quot;&gt;&lt;div style=&quot;height:2px;&quot;&gt;&lt;/div&gt;" style="verticalAlign=top;align=left;overflow=fill;html=1;whiteSpace=wrap;" parent="1Kp6WL4puUaQdGjoRusG-215" vertex="1">
          <mxGeometry width="160" height="130" as="geometry" />
        </mxCell>
        <mxCell id="1Kp6WL4puUaQdGjoRusG-127" value="Đặt phòng" style="ellipse;whiteSpace=wrap;html=1;" parent="1Kp6WL4puUaQdGjoRusG-215" vertex="1">
          <mxGeometry x="20.533333333333303" y="30" width="126.39999999999999" height="40" as="geometry" />
        </mxCell>
        <mxCell id="1Kp6WL4puUaQdGjoRusG-128" value="Chuyển phòng" style="ellipse;whiteSpace=wrap;html=1;" parent="1Kp6WL4puUaQdGjoRusG-215" vertex="1">
          <mxGeometry x="20.533333333333303" y="80" width="126.39999999999999" height="40" as="geometry" />
        </mxCell>
        <mxCell id="1Kp6WL4puUaQdGjoRusG-213" value="" style="endArrow=classic;html=1;rounded=0;entryX=0.008;entryY=0.423;entryDx=0;entryDy=0;exitX=1;exitY=0.3333333333333333;exitDx=0;exitDy=0;exitPerimeter=0;entryPerimeter=0;" parent="1Kp6WL4puUaQdGjoRusG-135" edge="1">
          <mxGeometry width="50" height="50" relative="1" as="geometry">
            <mxPoint x="30" y="492" as="sourcePoint" />
            <mxPoint x="272" y="587.28" as="targetPoint" />
          </mxGeometry>
        </mxCell>
        <mxCell id="1Kp6WL4puUaQdGjoRusG-214" value="" style="endArrow=classic;html=1;rounded=0;entryX=0.009;entryY=0.388;entryDx=0;entryDy=0;exitX=1;exitY=0.3333333333333333;exitDx=0;exitDy=0;exitPerimeter=0;entryPerimeter=0;" parent="1Kp6WL4puUaQdGjoRusG-135" edge="1">
          <mxGeometry width="50" height="50" relative="1" as="geometry">
            <mxPoint x="30" y="493" as="sourcePoint" />
            <mxPoint x="272" y="636" as="targetPoint" />
          </mxGeometry>
        </mxCell>
        <mxCell id="1Kp6WL4puUaQdGjoRusG-170" value="" style="endArrow=block;html=1;rounded=0;align=center;verticalAlign=bottom;endFill=0;labelBackgroundColor=none;endSize=8;entryX=0.5;entryY=0;entryDx=0;entryDy=0;entryPerimeter=0;" parent="1" target="1Kp6WL4puUaQdGjoRusG-32" edge="1">
          <mxGeometry relative="1" as="geometry">
            <mxPoint x="-3325" y="-920" as="sourcePoint" />
            <mxPoint x="-3340" y="-810" as="targetPoint" />
          </mxGeometry>
        </mxCell>
        <mxCell id="1Kp6WL4puUaQdGjoRusG-227" value="" style="group" parent="1" vertex="1" connectable="0">
          <mxGeometry x="-2320" y="-1870" width="510" height="570" as="geometry" />
        </mxCell>
        <mxCell id="nNNA26ouB6ZM9N3QlCfT-63" value="&lt;p style=&quot;text-align: left;&quot;&gt;&lt;b&gt;Actor quản lý&lt;/b&gt;&lt;/p&gt;&lt;div&gt;&lt;br&gt;&lt;/div&gt;" style="rounded=0;whiteSpace=wrap;html=1;direction=south;spacingBottom=530;fontSize=13;" parent="1Kp6WL4puUaQdGjoRusG-227" vertex="1">
          <mxGeometry x="110" width="400" height="570" as="geometry" />
        </mxCell>
        <mxCell id="nNNA26ouB6ZM9N3QlCfT-65" value="&lt;font style=&quot;font-size: 15px;&quot;&gt;Quản lý&lt;/font&gt;" style="shape=umlActor;verticalLabelPosition=bottom;verticalAlign=top;html=1;outlineConnect=0;" parent="1Kp6WL4puUaQdGjoRusG-227" vertex="1">
          <mxGeometry y="190" width="30" height="60" as="geometry" />
        </mxCell>
        <mxCell id="nNNA26ouB6ZM9N3QlCfT-70" value="Quản lý hóa đơn" style="ellipse;whiteSpace=wrap;html=1;" parent="1Kp6WL4puUaQdGjoRusG-227" vertex="1">
          <mxGeometry x="130" y="30" width="200" height="60" as="geometry" />
        </mxCell>
        <mxCell id="nNNA26ouB6ZM9N3QlCfT-71" value="Quản lý doanh thu" style="ellipse;whiteSpace=wrap;html=1;" parent="1Kp6WL4puUaQdGjoRusG-227" vertex="1">
          <mxGeometry x="335" y="40" width="170" height="60" as="geometry" />
        </mxCell>
        <mxCell id="nNNA26ouB6ZM9N3QlCfT-72" value="Quản lý thông tin khách hàng" style="ellipse;whiteSpace=wrap;html=1;" parent="1Kp6WL4puUaQdGjoRusG-227" vertex="1">
          <mxGeometry x="230" y="100" width="200" height="60" as="geometry" />
        </mxCell>
        <mxCell id="nNNA26ouB6ZM9N3QlCfT-73" value="" style="endArrow=classic;html=1;rounded=0;entryX=0;entryY=0.5;entryDx=0;entryDy=0;exitX=1;exitY=0.3333333333333333;exitDx=0;exitDy=0;exitPerimeter=0;" parent="1Kp6WL4puUaQdGjoRusG-227" source="nNNA26ouB6ZM9N3QlCfT-65" target="nNNA26ouB6ZM9N3QlCfT-70" edge="1">
          <mxGeometry width="50" height="50" relative="1" as="geometry">
            <mxPoint x="40" y="120" as="sourcePoint" />
            <mxPoint x="100" y="70" as="targetPoint" />
          </mxGeometry>
        </mxCell>
        <mxCell id="nNNA26ouB6ZM9N3QlCfT-75" value="" style="endArrow=classic;html=1;rounded=0;exitX=1;exitY=0.3333333333333333;exitDx=0;exitDy=0;exitPerimeter=0;entryX=0;entryY=0.5;entryDx=0;entryDy=0;" parent="1Kp6WL4puUaQdGjoRusG-227" source="nNNA26ouB6ZM9N3QlCfT-65" target="1Kp6WL4puUaQdGjoRusG-29" edge="1">
          <mxGeometry width="50" height="50" relative="1" as="geometry">
            <mxPoint x="40" y="379.9999999999998" as="sourcePoint" />
            <mxPoint x="265.07941350365536" y="391.46897899627515" as="targetPoint" />
          </mxGeometry>
        </mxCell>
        <mxCell id="nNNA26ouB6ZM9N3QlCfT-76" value="" style="endArrow=classic;html=1;rounded=0;entryX=0.038;entryY=0.667;entryDx=0;entryDy=0;exitX=1;exitY=0.3333333333333333;exitDx=0;exitDy=0;exitPerimeter=0;entryPerimeter=0;" parent="1Kp6WL4puUaQdGjoRusG-227" source="nNNA26ouB6ZM9N3QlCfT-65" target="nNNA26ouB6ZM9N3QlCfT-72" edge="1">
          <mxGeometry width="50" height="50" relative="1" as="geometry">
            <mxPoint x="40" y="380" as="sourcePoint" />
            <mxPoint x="240" y="367" as="targetPoint" />
          </mxGeometry>
        </mxCell>
        <mxCell id="nNNA26ouB6ZM9N3QlCfT-78" value="" style="endArrow=classic;html=1;rounded=0;entryX=0;entryY=0.5;entryDx=0;entryDy=0;exitX=1;exitY=0.3333333333333333;exitDx=0;exitDy=0;exitPerimeter=0;" parent="1Kp6WL4puUaQdGjoRusG-227" source="nNNA26ouB6ZM9N3QlCfT-65" target="nNNA26ouB6ZM9N3QlCfT-71" edge="1">
          <mxGeometry width="50" height="50" relative="1" as="geometry">
            <mxPoint x="180" y="170" as="sourcePoint" />
            <mxPoint x="340" y="110" as="targetPoint" />
          </mxGeometry>
        </mxCell>
        <mxCell id="1Kp6WL4puUaQdGjoRusG-29" value="Đăng xuất, đăng nhập" style="ellipse;whiteSpace=wrap;html=1;" parent="1Kp6WL4puUaQdGjoRusG-227" vertex="1">
          <mxGeometry x="170" y="160" width="130" height="50" as="geometry" />
        </mxCell>
        <mxCell id="1Kp6WL4puUaQdGjoRusG-172" value="" style="group" parent="1Kp6WL4puUaQdGjoRusG-227" vertex="1" connectable="0">
          <mxGeometry x="130" y="280" width="187.5" height="280" as="geometry" />
        </mxCell>
        <mxCell id="1Kp6WL4puUaQdGjoRusG-173" value="&lt;p style=&quot;margin:0px;margin-top:4px;text-align:center;&quot;&gt;&lt;b&gt;Quản lý chung&lt;/b&gt;&lt;/p&gt;&lt;hr size=&quot;1&quot; style=&quot;border-style:solid;&quot;&gt;&lt;div style=&quot;height:2px;&quot;&gt;&lt;/div&gt;" style="verticalAlign=top;align=left;overflow=fill;html=1;whiteSpace=wrap;" parent="1Kp6WL4puUaQdGjoRusG-172" vertex="1">
          <mxGeometry width="187.5" height="280" as="geometry" />
        </mxCell>
        <mxCell id="1Kp6WL4puUaQdGjoRusG-174" value="Quản lý dịch vụ" style="ellipse;whiteSpace=wrap;html=1;" parent="1Kp6WL4puUaQdGjoRusG-172" vertex="1">
          <mxGeometry x="21.25" y="26.25" width="145" height="43.75" as="geometry" />
        </mxCell>
        <mxCell id="1Kp6WL4puUaQdGjoRusG-175" value="Quản lý phòng" style="ellipse;whiteSpace=wrap;html=1;" parent="1Kp6WL4puUaQdGjoRusG-172" vertex="1">
          <mxGeometry x="21.25" y="78.75" width="145" height="43.75" as="geometry" />
        </mxCell>
        <mxCell id="1Kp6WL4puUaQdGjoRusG-176" value="Quản lý loại phòng" style="ellipse;whiteSpace=wrap;html=1;" parent="1Kp6WL4puUaQdGjoRusG-172" vertex="1">
          <mxGeometry x="21.25" y="126.875" width="145" height="43.75" as="geometry" />
        </mxCell>
        <mxCell id="1Kp6WL4puUaQdGjoRusG-177" value="Quản lý tầng" style="ellipse;whiteSpace=wrap;html=1;" parent="1Kp6WL4puUaQdGjoRusG-172" vertex="1">
          <mxGeometry x="21.25" y="179.375" width="145" height="43.75" as="geometry" />
        </mxCell>
        <mxCell id="1Kp6WL4puUaQdGjoRusG-178" value="Quản lý tài khoản" style="ellipse;whiteSpace=wrap;html=1;" parent="1Kp6WL4puUaQdGjoRusG-172" vertex="1">
          <mxGeometry x="21.25" y="230.86874999999992" width="145" height="43.75" as="geometry" />
        </mxCell>
        <mxCell id="1Kp6WL4puUaQdGjoRusG-216" value="" style="group" parent="1Kp6WL4puUaQdGjoRusG-227" vertex="1" connectable="0">
          <mxGeometry x="335" y="180" width="160" height="130" as="geometry" />
        </mxCell>
        <mxCell id="1Kp6WL4puUaQdGjoRusG-217" value="" style="group" parent="1Kp6WL4puUaQdGjoRusG-216" vertex="1" connectable="0">
          <mxGeometry width="160" height="130" as="geometry" />
        </mxCell>
        <mxCell id="1Kp6WL4puUaQdGjoRusG-218" value="&lt;p style=&quot;margin:0px;margin-top:4px;text-align:center;&quot;&gt;&lt;b&gt;Quản lý đặt phòng&lt;/b&gt;&lt;/p&gt;&lt;hr size=&quot;1&quot; style=&quot;border-style:solid;&quot;&gt;&lt;div style=&quot;height:2px;&quot;&gt;&lt;/div&gt;" style="verticalAlign=top;align=left;overflow=fill;html=1;whiteSpace=wrap;" parent="1Kp6WL4puUaQdGjoRusG-217" vertex="1">
          <mxGeometry width="160" height="130" as="geometry" />
        </mxCell>
        <mxCell id="1Kp6WL4puUaQdGjoRusG-219" value="Đặt phòng" style="ellipse;whiteSpace=wrap;html=1;" parent="1Kp6WL4puUaQdGjoRusG-217" vertex="1">
          <mxGeometry x="20.533333333333303" y="30" width="126.39999999999999" height="40" as="geometry" />
        </mxCell>
        <mxCell id="1Kp6WL4puUaQdGjoRusG-220" value="Chuyển phòng" style="ellipse;whiteSpace=wrap;html=1;" parent="1Kp6WL4puUaQdGjoRusG-217" vertex="1">
          <mxGeometry x="20.533333333333303" y="80" width="126.39999999999999" height="40" as="geometry" />
        </mxCell>
        <mxCell id="1Kp6WL4puUaQdGjoRusG-6" value="" style="endArrow=classic;html=1;rounded=0;entryX=0;entryY=0.5;entryDx=0;entryDy=0;exitX=1;exitY=0.3333333333333333;exitDx=0;exitDy=0;exitPerimeter=0;" parent="1Kp6WL4puUaQdGjoRusG-227" source="nNNA26ouB6ZM9N3QlCfT-65" target="1Kp6WL4puUaQdGjoRusG-220" edge="1">
          <mxGeometry width="50" height="50" relative="1" as="geometry">
            <mxPoint x="-10" y="150" as="sourcePoint" />
            <mxPoint x="190.00000000000773" y="505" as="targetPoint" />
          </mxGeometry>
        </mxCell>
        <mxCell id="nNNA26ouB6ZM9N3QlCfT-77" value="" style="endArrow=classic;html=1;rounded=0;entryX=0;entryY=0.5;entryDx=0;entryDy=0;exitX=1;exitY=0.3333333333333333;exitDx=0;exitDy=0;exitPerimeter=0;" parent="1Kp6WL4puUaQdGjoRusG-227" source="nNNA26ouB6ZM9N3QlCfT-65" target="1Kp6WL4puUaQdGjoRusG-219" edge="1">
          <mxGeometry width="50" height="50" relative="1" as="geometry">
            <mxPoint x="40" y="380" as="sourcePoint" />
            <mxPoint x="205" y="340" as="targetPoint" />
          </mxGeometry>
        </mxCell>
        <mxCell id="1Kp6WL4puUaQdGjoRusG-222" value="" style="endArrow=classic;html=1;rounded=0;entryX=0;entryY=0.5;entryDx=0;entryDy=0;exitX=1;exitY=0.3333333333333333;exitDx=0;exitDy=0;exitPerimeter=0;" parent="1Kp6WL4puUaQdGjoRusG-227" source="nNNA26ouB6ZM9N3QlCfT-65" target="1Kp6WL4puUaQdGjoRusG-174" edge="1">
          <mxGeometry width="50" height="50" relative="1" as="geometry">
            <mxPoint x="40" y="220" as="sourcePoint" />
            <mxPoint x="366" y="290" as="targetPoint" />
          </mxGeometry>
        </mxCell>
        <mxCell id="1Kp6WL4puUaQdGjoRusG-223" value="" style="endArrow=classic;html=1;rounded=0;entryX=0;entryY=0.5;entryDx=0;entryDy=0;exitX=1;exitY=0.3333333333333333;exitDx=0;exitDy=0;exitPerimeter=0;" parent="1Kp6WL4puUaQdGjoRusG-227" source="nNNA26ouB6ZM9N3QlCfT-65" target="1Kp6WL4puUaQdGjoRusG-175" edge="1">
          <mxGeometry width="50" height="50" relative="1" as="geometry">
            <mxPoint x="50" y="230" as="sourcePoint" />
            <mxPoint x="376" y="300" as="targetPoint" />
          </mxGeometry>
        </mxCell>
        <mxCell id="1Kp6WL4puUaQdGjoRusG-224" value="" style="endArrow=classic;html=1;rounded=0;entryX=0;entryY=0.5;entryDx=0;entryDy=0;exitX=1;exitY=0.3333333333333333;exitDx=0;exitDy=0;exitPerimeter=0;" parent="1Kp6WL4puUaQdGjoRusG-227" source="nNNA26ouB6ZM9N3QlCfT-65" target="1Kp6WL4puUaQdGjoRusG-177" edge="1">
          <mxGeometry width="50" height="50" relative="1" as="geometry">
            <mxPoint x="60" y="240" as="sourcePoint" />
            <mxPoint x="386" y="310" as="targetPoint" />
          </mxGeometry>
        </mxCell>
        <mxCell id="1Kp6WL4puUaQdGjoRusG-225" value="" style="endArrow=classic;html=1;rounded=0;entryX=0;entryY=0.5;entryDx=0;entryDy=0;" parent="1Kp6WL4puUaQdGjoRusG-227" target="1Kp6WL4puUaQdGjoRusG-176" edge="1">
          <mxGeometry width="50" height="50" relative="1" as="geometry">
            <mxPoint x="30" y="210" as="sourcePoint" />
            <mxPoint x="376" y="300" as="targetPoint" />
          </mxGeometry>
        </mxCell>
        <mxCell id="1Kp6WL4puUaQdGjoRusG-226" value="" style="endArrow=classic;html=1;rounded=0;entryX=0.016;entryY=0.414;entryDx=0;entryDy=0;exitX=1;exitY=0.3333333333333333;exitDx=0;exitDy=0;exitPerimeter=0;entryPerimeter=0;" parent="1Kp6WL4puUaQdGjoRusG-227" source="nNNA26ouB6ZM9N3QlCfT-65" target="1Kp6WL4puUaQdGjoRusG-178" edge="1">
          <mxGeometry width="50" height="50" relative="1" as="geometry">
            <mxPoint x="-170" y="460" as="sourcePoint" />
            <mxPoint x="156" y="530" as="targetPoint" />
          </mxGeometry>
        </mxCell>
        <mxCell id="nNNA26ouB6ZM9N3QlCfT-45" value="" style="endArrow=classic;html=1;rounded=0;entryX=0;entryY=0.5;entryDx=0;entryDy=0;" parent="1" target="nNNA26ouB6ZM9N3QlCfT-41" edge="1">
          <mxGeometry width="50" height="50" relative="1" as="geometry">
            <mxPoint x="-4070" y="-1460" as="sourcePoint" />
            <mxPoint x="-3820" y="-1390" as="targetPoint" />
          </mxGeometry>
        </mxCell>
        <mxCell id="1Kp6WL4puUaQdGjoRusG-228" value="" style="group" parent="1" vertex="1" connectable="0">
          <mxGeometry x="-3810" y="-1540.62" width="130" height="130" as="geometry" />
        </mxCell>
        <mxCell id="1Kp6WL4puUaQdGjoRusG-229" value="" style="group" parent="1Kp6WL4puUaQdGjoRusG-228" vertex="1" connectable="0">
          <mxGeometry width="130" height="130" as="geometry" />
        </mxCell>
        <mxCell id="1Kp6WL4puUaQdGjoRusG-230" value="&lt;p style=&quot;margin:0px;margin-top:4px;text-align:center;&quot;&gt;&lt;b&gt;Quản lý đặt phòng&lt;/b&gt;&lt;/p&gt;&lt;hr size=&quot;1&quot; style=&quot;border-style:solid;&quot;&gt;&lt;div style=&quot;height:2px;&quot;&gt;&lt;/div&gt;" style="verticalAlign=top;align=left;overflow=fill;html=1;whiteSpace=wrap;" parent="1Kp6WL4puUaQdGjoRusG-229" vertex="1">
          <mxGeometry width="130" height="130" as="geometry" />
        </mxCell>
        <mxCell id="1Kp6WL4puUaQdGjoRusG-231" value="Đặt phòng" style="ellipse;whiteSpace=wrap;html=1;" parent="1Kp6WL4puUaQdGjoRusG-229" vertex="1">
          <mxGeometry x="16.68333333333331" y="30" width="102.7" height="40" as="geometry" />
        </mxCell>
        <mxCell id="1Kp6WL4puUaQdGjoRusG-232" value="Chuyển phòng" style="ellipse;whiteSpace=wrap;html=1;" parent="1Kp6WL4puUaQdGjoRusG-229" vertex="1">
          <mxGeometry x="16.68333333333331" y="80" width="102.7" height="40" as="geometry" />
        </mxCell>
        <mxCell id="1Kp6WL4puUaQdGjoRusG-233" value="" style="endArrow=classic;html=1;rounded=0;entryX=0;entryY=0.5;entryDx=0;entryDy=0;exitX=1;exitY=0.3333333333333333;exitDx=0;exitDy=0;exitPerimeter=0;" parent="1" source="nNNA26ouB6ZM9N3QlCfT-35" target="1Kp6WL4puUaQdGjoRusG-232" edge="1">
          <mxGeometry width="50" height="50" relative="1" as="geometry">
            <mxPoint x="-4060" y="-1450" as="sourcePoint" />
            <mxPoint x="-3879" y="-1500" as="targetPoint" />
          </mxGeometry>
        </mxCell>
        <mxCell id="nNNA26ouB6ZM9N3QlCfT-39" value="" style="endArrow=classic;html=1;rounded=0;entryX=0;entryY=0.5;entryDx=0;entryDy=0;" parent="1" target="1Kp6WL4puUaQdGjoRusG-231" edge="1">
          <mxGeometry width="50" height="50" relative="1" as="geometry">
            <mxPoint x="-4070" y="-1460" as="sourcePoint" />
            <mxPoint x="-3920" y="-1515" as="targetPoint" />
          </mxGeometry>
        </mxCell>
        <mxCell id="1Kp6WL4puUaQdGjoRusG-236" value="" style="group" parent="1" vertex="1" connectable="0">
          <mxGeometry x="-2510" y="-940" width="590" height="270" as="geometry" />
        </mxCell>
        <mxCell id="1Kp6WL4puUaQdGjoRusG-95" value="&lt;font style=&quot;font-size: 15px;&quot;&gt;Quản lý&lt;/font&gt;" style="shape=umlActor;verticalLabelPosition=bottom;verticalAlign=top;html=1;outlineConnect=0;" parent="1Kp6WL4puUaQdGjoRusG-236" vertex="1">
          <mxGeometry y="150.0000000000001" width="30" height="60" as="geometry" />
        </mxCell>
        <mxCell id="1Kp6WL4puUaQdGjoRusG-96" value="Quản lý tầng" style="ellipse;whiteSpace=wrap;html=1;" parent="1Kp6WL4puUaQdGjoRusG-236" vertex="1">
          <mxGeometry x="100" y="150" width="140" height="50" as="geometry" />
        </mxCell>
        <mxCell id="1Kp6WL4puUaQdGjoRusG-97" value="" style="endArrow=classic;html=1;rounded=0;exitX=1;exitY=0.3333333333333333;exitDx=0;exitDy=0;exitPerimeter=0;entryX=-0.021;entryY=0.493;entryDx=0;entryDy=0;entryPerimeter=0;" parent="1Kp6WL4puUaQdGjoRusG-236" source="1Kp6WL4puUaQdGjoRusG-95" target="1Kp6WL4puUaQdGjoRusG-96" edge="1">
          <mxGeometry width="50" height="50" relative="1" as="geometry">
            <mxPoint x="60" y="274.0000000000001" as="sourcePoint" />
            <mxPoint x="140" y="240.0000000000001" as="targetPoint" />
          </mxGeometry>
        </mxCell>
        <mxCell id="1Kp6WL4puUaQdGjoRusG-99" value="Đăng nhập" style="ellipse;whiteSpace=wrap;html=1;" parent="1Kp6WL4puUaQdGjoRusG-236" vertex="1">
          <mxGeometry x="110" width="120" height="50" as="geometry" />
        </mxCell>
        <mxCell id="1Kp6WL4puUaQdGjoRusG-100" value="&amp;lt;&amp;lt;include&amp;gt;&amp;gt;" style="html=1;verticalAlign=bottom;labelBackgroundColor=none;endArrow=open;endFill=0;dashed=1;rounded=0;exitX=0.5;exitY=0;exitDx=0;exitDy=0;entryX=0.444;entryY=1;entryDx=0;entryDy=0;entryPerimeter=0;" parent="1Kp6WL4puUaQdGjoRusG-236" source="1Kp6WL4puUaQdGjoRusG-96" target="1Kp6WL4puUaQdGjoRusG-99" edge="1">
          <mxGeometry width="160" relative="1" as="geometry">
            <mxPoint x="180" y="151" as="sourcePoint" />
            <mxPoint x="410" y="340" as="targetPoint" />
          </mxGeometry>
        </mxCell>
        <mxCell id="1Kp6WL4puUaQdGjoRusG-103" value="Danh sách tầng" style="ellipse;whiteSpace=wrap;html=1;" parent="1Kp6WL4puUaQdGjoRusG-236" vertex="1">
          <mxGeometry x="320" y="150" width="120" height="50" as="geometry" />
        </mxCell>
        <mxCell id="1Kp6WL4puUaQdGjoRusG-105" value="&amp;lt;&amp;lt;include&amp;gt;&amp;gt;" style="html=1;verticalAlign=bottom;labelBackgroundColor=none;endArrow=open;endFill=0;dashed=1;rounded=0;entryX=0;entryY=0.5;entryDx=0;entryDy=0;exitX=1;exitY=0.5;exitDx=0;exitDy=0;" parent="1Kp6WL4puUaQdGjoRusG-236" source="1Kp6WL4puUaQdGjoRusG-96" target="1Kp6WL4puUaQdGjoRusG-103" edge="1">
          <mxGeometry width="160" relative="1" as="geometry">
            <mxPoint x="270" y="170" as="sourcePoint" />
            <mxPoint x="230" y="80" as="targetPoint" />
          </mxGeometry>
        </mxCell>
        <mxCell id="1Kp6WL4puUaQdGjoRusG-106" value="Thêm&lt;span style=&quot;background-color: transparent; color: light-dark(rgb(0, 0, 0), rgb(255, 255, 255));&quot;&gt;&amp;nbsp;tầng&lt;/span&gt;" style="ellipse;whiteSpace=wrap;html=1;" parent="1Kp6WL4puUaQdGjoRusG-236" vertex="1">
          <mxGeometry x="290" y="50" width="120" height="50" as="geometry" />
        </mxCell>
        <mxCell id="1Kp6WL4puUaQdGjoRusG-107" value="Cập nhật thông tin&lt;span style=&quot;background-color: transparent; color: light-dark(rgb(0, 0, 0), rgb(255, 255, 255));&quot;&gt;&amp;nbsp;tầng&lt;/span&gt;" style="ellipse;whiteSpace=wrap;html=1;" parent="1Kp6WL4puUaQdGjoRusG-236" vertex="1">
          <mxGeometry x="450" y="70" width="140" height="50" as="geometry" />
        </mxCell>
        <mxCell id="1Kp6WL4puUaQdGjoRusG-109" value="&lt;span style=&quot;background-color: transparent; color: light-dark(rgb(0, 0, 0), rgb(255, 255, 255));&quot;&gt;Xóa tầng&lt;/span&gt;" style="ellipse;whiteSpace=wrap;html=1;" parent="1Kp6WL4puUaQdGjoRusG-236" vertex="1">
          <mxGeometry x="450" y="220" width="120" height="50" as="geometry" />
        </mxCell>
        <mxCell id="1Kp6WL4puUaQdGjoRusG-110" value="&amp;lt;&amp;lt;extend&amp;gt;&amp;gt;" style="html=1;verticalAlign=bottom;labelBackgroundColor=none;endArrow=open;endFill=0;dashed=1;rounded=0;exitX=0.5;exitY=1;exitDx=0;exitDy=0;entryX=0.417;entryY=0;entryDx=0;entryDy=0;entryPerimeter=0;" parent="1Kp6WL4puUaQdGjoRusG-236" target="1Kp6WL4puUaQdGjoRusG-109" edge="1">
          <mxGeometry width="160" relative="1" as="geometry">
            <mxPoint x="400.03999999999996" y="200" as="sourcePoint" />
            <mxPoint x="470" y="250" as="targetPoint" />
          </mxGeometry>
        </mxCell>
        <mxCell id="1Kp6WL4puUaQdGjoRusG-111" value="&amp;lt;&amp;lt;extend&amp;gt;&amp;gt;" style="html=1;verticalAlign=bottom;labelBackgroundColor=none;endArrow=open;endFill=0;dashed=1;rounded=0;exitX=1;exitY=0.5;exitDx=0;exitDy=0;entryX=0.5;entryY=1;entryDx=0;entryDy=0;" parent="1Kp6WL4puUaQdGjoRusG-236" source="1Kp6WL4puUaQdGjoRusG-103" target="1Kp6WL4puUaQdGjoRusG-107" edge="1">
          <mxGeometry width="160" relative="1" as="geometry">
            <mxPoint x="480" y="190" as="sourcePoint" />
            <mxPoint x="550" y="240" as="targetPoint" />
          </mxGeometry>
        </mxCell>
        <mxCell id="1Kp6WL4puUaQdGjoRusG-112" value="&amp;lt;&amp;lt;extend&amp;gt;&amp;gt;" style="html=1;verticalAlign=bottom;labelBackgroundColor=none;endArrow=open;endFill=0;dashed=1;rounded=0;exitX=0.399;exitY=0.014;exitDx=0;exitDy=0;entryX=0.568;entryY=1.024;entryDx=0;entryDy=0;entryPerimeter=0;exitPerimeter=0;" parent="1Kp6WL4puUaQdGjoRusG-236" source="1Kp6WL4puUaQdGjoRusG-103" target="1Kp6WL4puUaQdGjoRusG-106" edge="1">
          <mxGeometry width="160" relative="1" as="geometry">
            <mxPoint x="370" y="130" as="sourcePoint" />
            <mxPoint x="440" y="180" as="targetPoint" />
          </mxGeometry>
        </mxCell>
        <mxCell id="H2TUgcT8EKV4Zl3KSWam-6" value="Chọn phòng" style="ellipse;whiteSpace=wrap;html=1;" vertex="1" parent="1">
          <mxGeometry x="-2210" y="-405" width="140" height="50" as="geometry" />
        </mxCell>
        <mxCell id="H2TUgcT8EKV4Zl3KSWam-13" value="" style="group" vertex="1" connectable="0" parent="1">
          <mxGeometry x="-2520" y="-560" width="400" height="301.15" as="geometry" />
        </mxCell>
        <mxCell id="H2TUgcT8EKV4Zl3KSWam-3" style="edgeStyle=orthogonalEdgeStyle;rounded=0;orthogonalLoop=1;jettySize=auto;html=1;entryX=0;entryY=0.5;entryDx=0;entryDy=0;" edge="1" parent="H2TUgcT8EKV4Zl3KSWam-13" target="H2TUgcT8EKV4Zl3KSWam-2">
          <mxGeometry relative="1" as="geometry">
            <mxPoint x="30.000000000000455" y="185" as="sourcePoint" />
          </mxGeometry>
        </mxCell>
        <mxCell id="H2TUgcT8EKV4Zl3KSWam-2" value="Chuyển phòng" style="ellipse;whiteSpace=wrap;html=1;" vertex="1" parent="H2TUgcT8EKV4Zl3KSWam-13">
          <mxGeometry x="100" y="160" width="140" height="50" as="geometry" />
        </mxCell>
        <mxCell id="H2TUgcT8EKV4Zl3KSWam-4" value="Đăng nhập" style="ellipse;whiteSpace=wrap;html=1;" vertex="1" parent="H2TUgcT8EKV4Zl3KSWam-13">
          <mxGeometry x="240" y="50" width="140" height="50" as="geometry" />
        </mxCell>
        <mxCell id="H2TUgcT8EKV4Zl3KSWam-5" value="&amp;lt;&amp;lt;include&amp;gt;&amp;gt;" style="html=1;verticalAlign=bottom;labelBackgroundColor=none;endArrow=open;endFill=0;dashed=1;rounded=0;entryX=0.335;entryY=1.011;entryDx=0;entryDy=0;exitX=0.784;exitY=0.057;exitDx=0;exitDy=0;exitPerimeter=0;entryPerimeter=0;" edge="1" parent="H2TUgcT8EKV4Zl3KSWam-13" source="H2TUgcT8EKV4Zl3KSWam-2" target="H2TUgcT8EKV4Zl3KSWam-4">
          <mxGeometry width="160" relative="1" as="geometry">
            <mxPoint x="220" y="140" as="sourcePoint" />
            <mxPoint x="300" y="140" as="targetPoint" />
          </mxGeometry>
        </mxCell>
        <mxCell id="H2TUgcT8EKV4Zl3KSWam-7" value="&amp;lt;&amp;lt;include&amp;gt;&amp;gt;" style="html=1;verticalAlign=bottom;labelBackgroundColor=none;endArrow=open;endFill=0;dashed=1;rounded=0;entryX=0;entryY=0.5;entryDx=0;entryDy=0;exitX=1;exitY=0.5;exitDx=0;exitDy=0;" edge="1" parent="H2TUgcT8EKV4Zl3KSWam-13" source="H2TUgcT8EKV4Zl3KSWam-2" target="H2TUgcT8EKV4Zl3KSWam-6">
          <mxGeometry width="160" relative="1" as="geometry">
            <mxPoint x="230" y="202" as="sourcePoint" />
            <mxPoint x="307" y="140" as="targetPoint" />
          </mxGeometry>
        </mxCell>
        <mxCell id="H2TUgcT8EKV4Zl3KSWam-8" value="Ghi chú lí do" style="ellipse;whiteSpace=wrap;html=1;" vertex="1" parent="H2TUgcT8EKV4Zl3KSWam-13">
          <mxGeometry x="260" y="251.14999999999998" width="140" height="50" as="geometry" />
        </mxCell>
        <mxCell id="H2TUgcT8EKV4Zl3KSWam-9" value="&amp;lt;&amp;lt;extend&amp;gt;&amp;gt;" style="html=1;verticalAlign=bottom;labelBackgroundColor=none;endArrow=open;endFill=0;dashed=1;rounded=0;exitX=0;exitY=0.5;exitDx=0;exitDy=0;entryX=0.743;entryY=1.04;entryDx=0;entryDy=0;entryPerimeter=0;" edge="1" parent="H2TUgcT8EKV4Zl3KSWam-13" source="H2TUgcT8EKV4Zl3KSWam-8" target="H2TUgcT8EKV4Zl3KSWam-2">
          <mxGeometry width="160" relative="1" as="geometry">
            <mxPoint x="230" y="300" as="sourcePoint" />
            <mxPoint x="220" y="250" as="targetPoint" />
          </mxGeometry>
        </mxCell>
        <mxCell id="H2TUgcT8EKV4Zl3KSWam-10" value="&lt;font style=&quot;font-size: 15px;&quot;&gt;Quản lý&lt;/font&gt;" style="shape=umlActor;verticalLabelPosition=bottom;verticalAlign=top;html=1;outlineConnect=0;" vertex="1" parent="H2TUgcT8EKV4Zl3KSWam-13">
          <mxGeometry width="30" height="60" as="geometry" />
        </mxCell>
        <mxCell id="H2TUgcT8EKV4Zl3KSWam-11" value="&lt;font style=&quot;font-size: 15px;&quot;&gt;Nhân viên&lt;/font&gt;" style="shape=umlActor;verticalLabelPosition=bottom;verticalAlign=top;html=1;outlineConnect=0;" vertex="1" parent="H2TUgcT8EKV4Zl3KSWam-13">
          <mxGeometry y="164.99999999999977" width="30" height="56.15" as="geometry" />
        </mxCell>
        <mxCell id="H2TUgcT8EKV4Zl3KSWam-12" value="" style="endArrow=block;html=1;rounded=0;align=center;verticalAlign=bottom;endFill=0;labelBackgroundColor=none;endSize=8;entryX=0.5;entryY=0;entryDx=0;entryDy=0;entryPerimeter=0;" edge="1" parent="H2TUgcT8EKV4Zl3KSWam-13" target="H2TUgcT8EKV4Zl3KSWam-11">
          <mxGeometry relative="1" as="geometry">
            <mxPoint x="15" y="54.999999999999886" as="sourcePoint" />
            <mxPoint y="164.9999999999999" as="targetPoint" />
          </mxGeometry>
        </mxCell>
        <mxCell id="H2TUgcT8EKV4Zl3KSWam-15" value="&lt;font style=&quot;font-size: 15px;&quot;&gt;Quản lý&lt;/font&gt;" style="shape=umlActor;verticalLabelPosition=bottom;verticalAlign=top;html=1;outlineConnect=0;" vertex="1" parent="1">
          <mxGeometry x="-4150" y="-880" width="30" height="60" as="geometry" />
        </mxCell>
        <mxCell id="H2TUgcT8EKV4Zl3KSWam-16" value="" style="endArrow=classic;html=1;rounded=0;exitX=1;exitY=0.3333333333333333;exitDx=0;exitDy=0;exitPerimeter=0;entryX=0;entryY=0.5;entryDx=0;entryDy=0;" edge="1" parent="1" source="H2TUgcT8EKV4Zl3KSWam-15" target="H2TUgcT8EKV4Zl3KSWam-17">
          <mxGeometry width="50" height="50" relative="1" as="geometry">
            <mxPoint x="-3830" y="-740" as="sourcePoint" />
            <mxPoint x="-4040" y="-850" as="targetPoint" />
          </mxGeometry>
        </mxCell>
        <mxCell id="H2TUgcT8EKV4Zl3KSWam-17" value="Quản lý hóa đơn" style="ellipse;whiteSpace=wrap;html=1;" vertex="1" parent="1">
          <mxGeometry x="-4040" y="-870" width="140" height="50" as="geometry" />
        </mxCell>
        <mxCell id="H2TUgcT8EKV4Zl3KSWam-19" value="Đăng nhập" style="ellipse;whiteSpace=wrap;html=1;" vertex="1" parent="1">
          <mxGeometry x="-4030" y="-1020" width="120" height="50" as="geometry" />
        </mxCell>
        <mxCell id="H2TUgcT8EKV4Zl3KSWam-20" value="&amp;lt;&amp;lt;include&amp;gt;&amp;gt;" style="html=1;verticalAlign=bottom;labelBackgroundColor=none;endArrow=open;endFill=0;dashed=1;rounded=0;exitX=0.5;exitY=0;exitDx=0;exitDy=0;entryX=0.444;entryY=1;entryDx=0;entryDy=0;entryPerimeter=0;" edge="1" parent="1" source="H2TUgcT8EKV4Zl3KSWam-17" target="H2TUgcT8EKV4Zl3KSWam-19">
          <mxGeometry width="160" relative="1" as="geometry">
            <mxPoint x="-3960" y="-869" as="sourcePoint" />
            <mxPoint x="-3730" y="-680" as="targetPoint" />
          </mxGeometry>
        </mxCell>
        <mxCell id="H2TUgcT8EKV4Zl3KSWam-21" value="Danh sách hóa đơn" style="ellipse;whiteSpace=wrap;html=1;" vertex="1" parent="1">
          <mxGeometry x="-3820" y="-870" width="120" height="50" as="geometry" />
        </mxCell>
        <mxCell id="H2TUgcT8EKV4Zl3KSWam-22" value="&amp;lt;&amp;lt;include&amp;gt;&amp;gt;" style="html=1;verticalAlign=bottom;labelBackgroundColor=none;endArrow=open;endFill=0;dashed=1;rounded=0;entryX=0;entryY=0.5;entryDx=0;entryDy=0;exitX=1;exitY=0.5;exitDx=0;exitDy=0;" edge="1" parent="1" source="H2TUgcT8EKV4Zl3KSWam-17" target="H2TUgcT8EKV4Zl3KSWam-21">
          <mxGeometry width="160" relative="1" as="geometry">
            <mxPoint x="-3870" y="-850" as="sourcePoint" />
            <mxPoint x="-3910" y="-940" as="targetPoint" />
          </mxGeometry>
        </mxCell>
        <mxCell id="H2TUgcT8EKV4Zl3KSWam-24" value="Xuất file execl" style="ellipse;whiteSpace=wrap;html=1;" vertex="1" parent="1">
          <mxGeometry x="-3880" y="-960" width="140" height="50" as="geometry" />
        </mxCell>
        <mxCell id="H2TUgcT8EKV4Zl3KSWam-25" value="&lt;span style=&quot;background-color: transparent; color: light-dark(rgb(0, 0, 0), rgb(255, 255, 255));&quot;&gt;Tìm kiếm hóa đơn&lt;/span&gt;" style="ellipse;whiteSpace=wrap;html=1;" vertex="1" parent="1">
          <mxGeometry x="-3900" y="-770" width="120" height="50" as="geometry" />
        </mxCell>
        <mxCell id="H2TUgcT8EKV4Zl3KSWam-26" value="&amp;lt;&amp;lt;extend&amp;gt;&amp;gt;" style="html=1;verticalAlign=bottom;labelBackgroundColor=none;endArrow=open;endFill=0;dashed=1;rounded=0;exitX=0.321;exitY=0.99;exitDx=0;exitDy=0;entryX=0.417;entryY=0;entryDx=0;entryDy=0;entryPerimeter=0;exitPerimeter=0;" edge="1" parent="1" target="H2TUgcT8EKV4Zl3KSWam-25" source="H2TUgcT8EKV4Zl3KSWam-21">
          <mxGeometry width="160" relative="1" as="geometry">
            <mxPoint x="-3739.96" y="-820" as="sourcePoint" />
            <mxPoint x="-3670" y="-770" as="targetPoint" />
          </mxGeometry>
        </mxCell>
        <mxCell id="H2TUgcT8EKV4Zl3KSWam-27" value="&amp;lt;&amp;lt;extend&amp;gt;&amp;gt;" style="html=1;verticalAlign=bottom;labelBackgroundColor=none;endArrow=open;endFill=0;dashed=1;rounded=0;entryX=0.5;entryY=1;entryDx=0;entryDy=0;" edge="1" parent="1" source="H2TUgcT8EKV4Zl3KSWam-21" target="H2TUgcT8EKV4Zl3KSWam-24">
          <mxGeometry width="160" relative="1" as="geometry">
            <mxPoint x="-3660" y="-830" as="sourcePoint" />
            <mxPoint x="-3590" y="-780" as="targetPoint" />
          </mxGeometry>
        </mxCell>
        <mxCell id="SpIfO61Mp1py24zyhGVX-1" value="Nhân Viên" style="shape=umlActor;verticalLabelPosition=bottom;verticalAlign=top;html=1;outlineConnect=0;" vertex="1" parent="1">
          <mxGeometry x="-4030" y="-690" width="30" height="60" as="geometry" />
        </mxCell>
        <mxCell id="SpIfO61Mp1py24zyhGVX-5" value="&lt;font style=&quot;font-size: 13px;&quot;&gt;&lt;b&gt;Quản Lý Khách Hàng&lt;/b&gt;&lt;/font&gt;" style="rounded=0;whiteSpace=wrap;html=1;direction=south;spacingBottom=290;" vertex="1" parent="1">
          <mxGeometry x="-3910" y="-860" width="520" height="360" as="geometry" />
        </mxCell>
        <mxCell id="SpIfO61Mp1py24zyhGVX-6" value="&lt;font style=&quot;font-size: 15px;&quot;&gt;Quản lý&lt;/font&gt;" style="shape=umlActor;verticalLabelPosition=bottom;verticalAlign=top;html=1;outlineConnect=0;" vertex="1" parent="1">
          <mxGeometry x="-4020" y="-830" width="30" height="60" as="geometry" />
        </mxCell>
        <mxCell id="SpIfO61Mp1py24zyhGVX-9" value="Quản lý khách hàng" style="ellipse;whiteSpace=wrap;html=1;" vertex="1" parent="1">
          <mxGeometry x="-3840" y="-690" width="180" height="60" as="geometry" />
        </mxCell>
        <mxCell id="SpIfO61Mp1py24zyhGVX-10" value="Thêm khách hàng" style="ellipse;whiteSpace=wrap;html=1;" vertex="1" parent="1">
          <mxGeometry x="-3590" y="-800" width="120" height="40" as="geometry" />
        </mxCell>
        <mxCell id="SpIfO61Mp1py24zyhGVX-11" value="Sửa khách hàng" style="ellipse;whiteSpace=wrap;html=1;" vertex="1" parent="1">
          <mxGeometry x="-3560" y="-730" width="110" height="40" as="geometry" />
        </mxCell>
        <mxCell id="SpIfO61Mp1py24zyhGVX-12" value="Xóa khách hàng" style="ellipse;whiteSpace=wrap;html=1;" vertex="1" parent="1">
          <mxGeometry x="-3530" y="-660" width="110" height="40" as="geometry" />
        </mxCell>
        <mxCell id="SpIfO61Mp1py24zyhGVX-13" value="Hiển thị danh sách khách hàng" style="ellipse;whiteSpace=wrap;html=1;" vertex="1" parent="1">
          <mxGeometry x="-3800" y="-570" width="190" height="40" as="geometry" />
        </mxCell>
        <mxCell id="SpIfO61Mp1py24zyhGVX-14" value="Tìm kiếm khách hàng" style="ellipse;whiteSpace=wrap;html=1;" vertex="1" parent="1">
          <mxGeometry x="-3580" y="-600" width="120" height="40" as="geometry" />
        </mxCell>
        <mxCell id="SpIfO61Mp1py24zyhGVX-15" value="Đăng nhập" style="ellipse;whiteSpace=wrap;html=1;" vertex="1" parent="1">
          <mxGeometry x="-3800" y="-800" width="120" height="40" as="geometry" />
        </mxCell>
        <mxCell id="SpIfO61Mp1py24zyhGVX-18" value="include" style="endArrow=open;endSize=12;dashed=1;html=1;rounded=0;exitX=0.5;exitY=0;exitDx=0;exitDy=0;" edge="1" parent="1" source="SpIfO61Mp1py24zyhGVX-9" target="SpIfO61Mp1py24zyhGVX-15">
          <mxGeometry width="160" relative="1" as="geometry">
            <mxPoint x="-4090" y="-510" as="sourcePoint" />
            <mxPoint x="-3930" y="-510" as="targetPoint" />
          </mxGeometry>
        </mxCell>
        <mxCell id="SpIfO61Mp1py24zyhGVX-25" value="extend" style="endArrow=open;endSize=12;dashed=1;html=1;rounded=0;exitX=0.065;exitY=0.85;exitDx=0;exitDy=0;exitPerimeter=0;" edge="1" parent="1" source="SpIfO61Mp1py24zyhGVX-10" target="SpIfO61Mp1py24zyhGVX-9">
          <mxGeometry width="160" relative="1" as="geometry">
            <mxPoint x="-3660" y="-650" as="sourcePoint" />
            <mxPoint x="-3652" y="-720" as="targetPoint" />
          </mxGeometry>
        </mxCell>
        <mxCell id="SpIfO61Mp1py24zyhGVX-26" value="extend" style="endArrow=open;endSize=12;dashed=1;html=1;rounded=0;exitX=0;exitY=0.5;exitDx=0;exitDy=0;entryX=0.929;entryY=0.231;entryDx=0;entryDy=0;entryPerimeter=0;" edge="1" parent="1" source="SpIfO61Mp1py24zyhGVX-11" target="SpIfO61Mp1py24zyhGVX-9">
          <mxGeometry width="160" relative="1" as="geometry">
            <mxPoint x="-3514" y="-710" as="sourcePoint" />
            <mxPoint x="-3640" y="-631" as="targetPoint" />
          </mxGeometry>
        </mxCell>
        <mxCell id="SpIfO61Mp1py24zyhGVX-27" value="extend" style="endArrow=open;endSize=12;dashed=1;html=1;rounded=0;exitX=-0.01;exitY=0.642;exitDx=0;exitDy=0;exitPerimeter=0;entryX=1;entryY=0.5;entryDx=0;entryDy=0;" edge="1" parent="1" source="SpIfO61Mp1py24zyhGVX-12" target="SpIfO61Mp1py24zyhGVX-9">
          <mxGeometry width="160" relative="1" as="geometry">
            <mxPoint x="-3444" y="-650" as="sourcePoint" />
            <mxPoint x="-3570" y="-571" as="targetPoint" />
          </mxGeometry>
        </mxCell>
        <mxCell id="SpIfO61Mp1py24zyhGVX-28" value="extend" style="endArrow=open;endSize=12;dashed=1;html=1;rounded=0;exitX=0.048;exitY=0.358;exitDx=0;exitDy=0;exitPerimeter=0;entryX=0.933;entryY=0.754;entryDx=0;entryDy=0;entryPerimeter=0;" edge="1" parent="1" source="SpIfO61Mp1py24zyhGVX-14" target="SpIfO61Mp1py24zyhGVX-9">
          <mxGeometry width="160" relative="1" as="geometry">
            <mxPoint x="-3444" y="-590" as="sourcePoint" />
            <mxPoint x="-3570" y="-511" as="targetPoint" />
          </mxGeometry>
        </mxCell>
        <mxCell id="SpIfO61Mp1py24zyhGVX-31" value="" style="endArrow=open;endFill=1;endSize=12;html=1;rounded=0;entryX=0;entryY=0.5;entryDx=0;entryDy=0;" edge="1" parent="1" source="SpIfO61Mp1py24zyhGVX-1" target="SpIfO61Mp1py24zyhGVX-9">
          <mxGeometry width="160" relative="1" as="geometry">
            <mxPoint x="-3860" y="-700" as="sourcePoint" />
            <mxPoint x="-3700" y="-700" as="targetPoint" />
          </mxGeometry>
        </mxCell>
        <mxCell id="SpIfO61Mp1py24zyhGVX-32" value="" style="endArrow=open;endFill=1;endSize=12;html=1;rounded=0;entryX=0.013;entryY=0.323;entryDx=0;entryDy=0;entryPerimeter=0;" edge="1" parent="1" source="SpIfO61Mp1py24zyhGVX-6" target="SpIfO61Mp1py24zyhGVX-9">
          <mxGeometry width="160" relative="1" as="geometry">
            <mxPoint x="-4030" y="-780" as="sourcePoint" />
            <mxPoint x="-3860" y="-780" as="targetPoint" />
          </mxGeometry>
        </mxCell>
        <mxCell id="SpIfO61Mp1py24zyhGVX-33" value="" style="html=1;verticalAlign=bottom;labelBackgroundColor=none;endArrow=block;endFill=1;rounded=0;" edge="1" parent="1" source="SpIfO61Mp1py24zyhGVX-6" target="SpIfO61Mp1py24zyhGVX-1">
          <mxGeometry width="160" relative="1" as="geometry">
            <mxPoint x="-3860" y="-700" as="sourcePoint" />
            <mxPoint x="-3700" y="-700" as="targetPoint" />
          </mxGeometry>
        </mxCell>
        <mxCell id="SpIfO61Mp1py24zyhGVX-34" value="include" style="endArrow=open;endSize=12;dashed=1;html=1;rounded=0;exitX=0.587;exitY=0.972;exitDx=0;exitDy=0;exitPerimeter=0;" edge="1" parent="1" source="SpIfO61Mp1py24zyhGVX-9" target="SpIfO61Mp1py24zyhGVX-13">
          <mxGeometry width="160" relative="1" as="geometry">
            <mxPoint x="-3720" y="-530" as="sourcePoint" />
            <mxPoint x="-3712" y="-600" as="targetPoint" />
          </mxGeometry>
        </mxCell>
      </root>
    </mxGraphModel>
  </diagram>
</mxfile>
